<svg xmlns="http://www.w3.org/2000/svg" xmlns:xlink="http://www.w3.org/1999/xlink" width="1080" zoomAndPan="magnify" viewBox="0 0 810 809.999993" height="1080" preserveAspectRatio="xMidYMid meet" version="1.0"><defs><clipPath id="6ef570c87b"><path d="M 16 45 L 648.253906 45 L 648.253906 678.480469 L 16 678.480469 Z M 16 45 " clip-rule="nonzero"/></clipPath><clipPath id="223169a423"><path d="M 1 45 L 633 45 L 633 678.480469 L 1 678.480469 Z M 1 45 " clip-rule="nonzero"/></clipPath><clipPath id="9aecaf95cd"><path d="M 77 0.175781 L 135 0.175781 L 135 122 L 77 122 Z M 77 0.175781 " clip-rule="nonzero"/></clipPath><clipPath id="5447274b07"><path d="M 218 0.175781 L 276 0.175781 L 276 122 L 218 122 Z M 218 0.175781 " clip-rule="nonzero"/></clipPath><clipPath id="f2963c8d9d"><path d="M 358 0.175781 L 416 0.175781 L 416 122 L 358 122 Z M 358 0.175781 " clip-rule="nonzero"/></clipPath><clipPath id="db54ac1fc3"><path d="M 498 0.175781 L 556 0.175781 L 556 122 L 498 122 Z M 498 0.175781 " clip-rule="nonzero"/></clipPath><clipPath id="33d7676756"><path d="M 446 279.0625 L 517 279.0625 L 517 398 L 446 398 Z M 446 279.0625 " clip-rule="nonzero"/></clipPath><clipPath id="b701af39db"><path d="M 445.628906 279.0625 L 517.28125 279.0625 L 517.28125 398.480469 L 445.628906 398.480469 Z M 445.628906 279.0625 " clip-rule="nonzero"/></clipPath><clipPath id="06325169d4"><path d="M 98.847656 279.0625 L 218.269531 279.0625 L 218.269531 398.480469 L 98.847656 398.480469 Z M 98.847656 279.0625 " clip-rule="nonzero"/></clipPath><clipPath id="efc4244d21"><path d="M 265.0625 279.0625 L 384.480469 279.0625 L 384.480469 398.480469 L 265.0625 398.480469 Z M 265.0625 279.0625 " clip-rule="nonzero"/></clipPath><clipPath id="1ecb604e00"><path d="M 98.847656 485.71875 L 218.269531 485.71875 L 218.269531 605.140625 L 98.847656 605.140625 Z M 98.847656 485.71875 " clip-rule="nonzero"/></clipPath><clipPath id="beea921b37"><path d="M 265.0625 485.71875 L 384.480469 485.71875 L 384.480469 605.140625 L 265.0625 605.140625 Z M 265.0625 485.71875 " clip-rule="nonzero"/></clipPath><clipPath id="89baef01db"><path d="M 421.804688 485.71875 L 541.222656 485.71875 L 541.222656 605.140625 L 421.804688 605.140625 Z M 421.804688 485.71875 " clip-rule="nonzero"/></clipPath><clipPath id="9f0653a95b"><rect x="0" width="651" y="0" height="679"/></clipPath></defs><rect x="-81" width="972" fill="#ffffff" y="-80.999999" height="971.999992" fill-opacity="1"/><rect x="-81" width="972" fill="#ffffff" y="-80.999999" height="971.999992" fill-opacity="1"/><g transform="matrix(1, 0, 0, 1, 80, 66)"><g clip-path="url(#9f0653a95b)"><g clip-path="url(#6ef570c87b)"><path fill="#a02c2c" d="M 86.996094 45.335938 C 48.128906 45.335938 16.839844 79.566406 16.839844 122.078125 L 16.839844 601.714844 C 16.839844 644.230469 48.128906 678.457031 86.996094 678.457031 L 578.097656 678.457031 C 616.960938 678.457031 648.253906 644.230469 648.253906 601.714844 L 648.253906 122.078125 C 648.253906 79.566406 616.960938 45.335938 578.097656 45.335938 Z M 86.996094 45.335938 " fill-opacity="1" fill-rule="nonzero"/></g><g clip-path="url(#223169a423)"><path fill="#ff0000" d="M 71.15625 45.335938 C 32.289062 45.335938 1 79.566406 1 122.078125 L 1 601.714844 C 1 644.230469 32.289062 678.457031 71.15625 678.457031 L 562.257812 678.457031 C 601.125 678.457031 632.417969 644.230469 632.417969 601.714844 L 632.417969 122.078125 C 632.417969 79.566406 601.125 45.335938 562.257812 45.335938 Z M 71.15625 45.335938 " fill-opacity="1" fill-rule="nonzero"/></g><path fill="#ffffff" d="M 38.847656 234.34375 L 38.847656 578.074219 C 38.847656 616.398438 66.386719 647.25 100.59375 647.25 L 532.824219 647.25 C 567.027344 647.25 594.570312 616.398438 594.570312 578.074219 L 594.570312 234.34375 Z M 38.847656 234.34375 " fill-opacity="1" fill-rule="nonzero"/><path fill="#aa0000" d="M 66.773438 95 C 66.800781 74.972656 84.292969 58.707031 105.960938 58.566406 C 127.628906 58.429688 145.367188 74.464844 145.695312 94.496094 C 146.023438 114.519531 128.820312 131.046875 107.160156 131.515625 C 85.496094 131.984375 67.476562 116.21875 66.792969 96.199219 " fill-opacity="1" fill-rule="nonzero"/><g clip-path="url(#9aecaf95cd)"><path fill="#e6e6e6" d="M 106.238281 0.199219 C 122.027344 0.199219 134.738281 12.855469 134.738281 28.574219 L 134.738281 93.425781 C 134.738281 109.144531 122.027344 121.796875 106.238281 121.796875 C 90.445312 121.796875 77.734375 109.144531 77.734375 93.425781 L 77.734375 28.574219 C 77.734375 12.855469 90.445312 0.199219 106.238281 0.199219 Z M 106.238281 0.199219 " fill-opacity="1" fill-rule="nonzero"/></g><path fill="#aa0000" d="M 207.089844 95 C 207.113281 74.972656 224.609375 58.707031 246.277344 58.566406 C 267.945312 58.429688 285.679688 74.464844 286.007812 94.496094 C 286.339844 114.519531 269.136719 131.046875 247.472656 131.515625 C 225.808594 131.984375 207.792969 116.21875 207.109375 96.199219 " fill-opacity="1" fill-rule="nonzero"/><g clip-path="url(#5447274b07)"><path fill="#e6e6e6" d="M 246.550781 0.199219 C 262.339844 0.199219 275.050781 12.855469 275.050781 28.574219 L 275.050781 93.425781 C 275.050781 109.144531 262.339844 121.796875 246.550781 121.796875 C 230.761719 121.796875 218.050781 109.144531 218.050781 93.425781 L 218.050781 28.574219 C 218.050781 12.855469 230.761719 0.199219 246.550781 0.199219 Z M 246.550781 0.199219 " fill-opacity="1" fill-rule="nonzero"/></g><path fill="#aa0000" d="M 347.402344 95 C 347.429688 74.972656 364.921875 58.707031 386.589844 58.566406 C 408.261719 58.429688 425.996094 74.464844 426.324219 94.496094 C 426.65625 114.519531 409.453125 131.046875 387.785156 131.515625 C 366.125 131.984375 348.105469 116.21875 347.421875 96.199219 " fill-opacity="1" fill-rule="nonzero"/><g clip-path="url(#f2963c8d9d)"><path fill="#e6e6e6" d="M 386.867188 0.199219 C 402.65625 0.199219 415.367188 12.855469 415.367188 28.574219 L 415.367188 93.425781 C 415.367188 109.144531 402.65625 121.796875 386.867188 121.796875 C 371.078125 121.796875 358.363281 109.144531 358.363281 93.425781 L 358.363281 28.574219 C 358.363281 12.855469 371.078125 0.199219 386.867188 0.199219 Z M 386.867188 0.199219 " fill-opacity="1" fill-rule="nonzero"/></g><path fill="#aa0000" d="M 487.71875 95 C 487.746094 74.972656 505.238281 58.707031 526.90625 58.566406 C 548.574219 58.429688 566.3125 74.464844 566.640625 94.496094 C 566.96875 114.519531 549.765625 131.046875 528.101562 131.515625 C 506.441406 131.984375 488.421875 116.21875 487.734375 96.199219 " fill-opacity="1" fill-rule="nonzero"/><g clip-path="url(#db54ac1fc3)"><path fill="#e6e6e6" d="M 527.179688 0.199219 C 542.972656 0.199219 555.679688 12.855469 555.679688 28.574219 L 555.679688 93.425781 C 555.679688 109.144531 542.972656 121.796875 527.179688 121.796875 C 511.394531 121.796875 498.679688 109.144531 498.679688 93.425781 L 498.679688 28.574219 C 498.679688 12.855469 511.394531 0.199219 527.179688 0.199219 Z M 527.179688 0.199219 " fill-opacity="1" fill-rule="nonzero"/></g><g clip-path="url(#33d7676756)"><path fill="#040606" d="M 516.742188 308.667969 L 491.441406 308.667969 L 491.441406 279.589844 L 471.46875 279.589844 L 471.46875 308.667969 L 446.167969 308.667969 L 446.167969 328.726562 L 471.46875 328.726562 L 471.46875 397.917969 L 491.441406 397.917969 L 491.441406 328.726562 L 516.742188 328.726562 L 516.742188 308.667969 " fill-opacity="1" fill-rule="nonzero"/></g><g clip-path="url(#b701af39db)"><path fill="#f4f4f4" d="M 516.742188 308.667969 L 516.742188 308.128906 L 491.980469 308.128906 L 491.980469 279.589844 C 491.980469 279.449219 491.921875 279.308594 491.824219 279.207031 C 491.722656 279.109375 491.585938 279.050781 491.441406 279.050781 L 471.46875 279.050781 C 471.328125 279.050781 471.1875 279.109375 471.085938 279.207031 C 470.988281 279.308594 470.929688 279.449219 470.929688 279.589844 L 470.929688 308.128906 L 446.167969 308.128906 C 446.023438 308.128906 445.886719 308.1875 445.785156 308.289062 C 445.6875 308.386719 445.628906 308.527344 445.628906 308.667969 L 445.628906 328.726562 C 445.628906 328.867188 445.6875 329.007812 445.785156 329.105469 C 445.886719 329.207031 446.023438 329.265625 446.167969 329.265625 L 470.929688 329.265625 L 470.929688 397.917969 C 470.929688 398.058594 470.988281 398.199219 471.085938 398.296875 C 471.1875 398.398438 471.328125 398.457031 471.46875 398.457031 L 491.441406 398.457031 C 491.585938 398.457031 491.722656 398.398438 491.824219 398.296875 C 491.921875 398.199219 491.980469 398.058594 491.980469 397.917969 L 491.980469 329.265625 L 516.742188 329.265625 C 516.882812 329.265625 517.023438 329.207031 517.121094 329.105469 C 517.222656 329.007812 517.28125 328.867188 517.28125 328.726562 L 517.28125 308.667969 C 517.28125 308.527344 517.222656 308.386719 517.121094 308.289062 C 517.023438 308.1875 516.882812 308.128906 516.742188 308.128906 L 516.742188 308.667969 L 516.207031 308.667969 L 516.207031 328.183594 L 491.441406 328.183594 C 491.300781 328.183594 491.164062 328.242188 491.0625 328.34375 C 490.960938 328.445312 490.90625 328.582031 490.90625 328.726562 L 490.90625 397.375 L 472.003906 397.375 L 472.007812 328.726562 C 472.007812 328.582031 471.949219 328.445312 471.847656 328.34375 C 471.75 328.242188 471.609375 328.183594 471.46875 328.183594 L 446.703125 328.183594 L 446.703125 309.210938 L 471.46875 309.210938 C 471.609375 309.210938 471.75 309.152344 471.847656 309.050781 C 471.949219 308.949219 472.007812 308.8125 472.007812 308.667969 L 472.007812 280.128906 L 490.90625 280.128906 L 490.90625 308.667969 C 490.90625 308.8125 490.960938 308.949219 491.0625 309.050781 C 491.164062 309.152344 491.300781 309.210938 491.441406 309.210938 L 516.742188 309.210938 L 516.742188 308.667969 L 516.207031 308.667969 L 516.742188 308.667969 " fill-opacity="1" fill-rule="nonzero"/></g><path fill="#ff0000" d="M 217.261719 340.019531 C 216.625 341.070312 215.539062 341.691406 214.464844 342.289062 C 214.917969 342.945312 214.902344 343.824219 214.699219 344.597656 C 214.496094 345.371094 214.128906 346.089844 213.921875 346.863281 C 213.71875 347.636719 213.769531 348.65625 214.21875 349.3125 C 213.601562 349.339844 213.085938 349.835938 212.832031 350.402344 C 212.585938 350.96875 212.546875 351.597656 212.492188 352.210938 C 212.441406 352.828125 212.355469 353.464844 212.035156 353.992188 L 212.050781 353.996094 C 212.933594 354.34375 213.855469 354.71875 214.480469 355.4375 C 214.664062 355.652344 214.820312 355.890625 214.914062 356.148438 C 215.132812 356.742188 215.042969 357.417969 214.800781 358.003906 C 214.554688 358.589844 214.164062 359.101562 213.785156 359.609375 C 214.28125 360.101562 215.097656 360.660156 215.324219 361.324219 C 215.464844 361.75 215.476562 362.207031 215.542969 362.648438 C 215.761719 364.21875 216.59375 365.695312 216.542969 367.285156 C 216.539062 367.449219 216.417969 367.585938 216.28125 367.667969 C 216.140625 367.75 215.984375 367.796875 215.84375 367.871094 C 215.347656 368.121094 215.089844 368.683594 214.984375 369.226562 C 214.882812 369.773438 214.898438 370.339844 214.78125 370.882812 C 214.546875 371.988281 213.699219 372.886719 212.964844 373.746094 C 213.367188 374.25 213.773438 374.761719 214 375.359375 C 214.230469 375.960938 214.253906 376.671875 213.914062 377.214844 C 213.496094 377.878906 212.492188 378.199219 211.734375 378.398438 C 212.292969 378.941406 212.886719 379.539062 213 380.3125 C 213.074219 380.847656 212.910156 381.394531 212.980469 381.933594 C 213.039062 382.394531 213.273438 382.824219 213.574219 383.179688 C 213.875 383.53125 214.246094 383.832031 214.605469 384.125 C 213.949219 385.109375 214.015625 386.515625 214.324219 387.660156 C 214.632812 388.804688 215.179688 389.871094 215.480469 391.015625 C 215.867188 392.476562 215.839844 394.042969 215.410156 395.492188 C 213.445312 395.957031 211.171875 395.960938 209.257812 395.308594 C 208.382812 395.007812 207.539062 394.59375 206.632812 394.398438 C 205.726562 394.203125 204.632812 394.230469 203.894531 394.792969 C 203.554688 394.234375 203.035156 393.789062 202.433594 393.550781 C 201.734375 393.269531 200.957031 393.257812 200.214844 393.140625 C 199.46875 393.019531 198.640625 392.699219 198.21875 392.070312 C 198.039062 392.855469 197.671875 393.597656 197.152344 394.214844 C 196.96875 394.433594 196.742188 394.648438 196.457031 394.691406 C 196.242188 394.722656 196.03125 394.648438 195.828125 394.570312 C 195.066406 394.273438 194.3125 393.816406 193.644531 393.34375 C 193.246094 393.324219 192.890625 393.582031 192.613281 393.867188 C 192.339844 394.152344 192.101562 394.488281 191.765625 394.699219 C 190.910156 395.238281 189.742188 394.816406 188.796875 395.183594 C 188.023438 395.488281 187.367188 396.21875 186.945312 396.933594 C 186.671875 396.703125 186.308594 396.621094 185.953125 396.59375 C 185.597656 396.5625 185.242188 396.578125 184.894531 396.496094 C 184.375 396.382812 183.917969 396.074219 183.410156 395.910156 C 182.691406 395.679688 181.902344 395.75 181.1875 395.515625 C 180.375 395.25 179.742188 394.621094 179.136719 394.011719 C 178.386719 394.578125 178.039062 394.703125 177.164062 395.050781 C 176.8125 395.1875 176.429688 395.3125 176.0625 395.222656 C 175.757812 395.144531 175.507812 394.933594 175.285156 394.710938 C 174.632812 394.0625 174.105469 393.226562 173.742188 392.378906 C 172.785156 392.871094 171.601562 392.507812 170.578125 392.832031 C 169.863281 393.058594 169.222656 393.667969 168.972656 394.378906 C 168.457031 393.882812 167.632812 393.882812 166.949219 394.09375 C 166.269531 394.304688 165.652344 394.691406 164.96875 394.90625 C 164.042969 395.191406 163.019531 395.132812 162.132812 394.738281 L 162.136719 394.546875 C 161.800781 395.816406 160.890625 396.925781 159.710938 397.5 C 159.375 397.664062 159.003906 397.785156 158.640625 397.730469 C 158.332031 397.679688 158.054688 397.511719 157.804688 397.328125 C 156.878906 396.667969 156.089844 395.816406 155.5 394.84375 C 154.453125 395.023438 153.382812 395.203125 152.40625 394.777344 C 151.90625 394.5625 151.46875 394.199219 150.960938 394.011719 C 150.160156 393.714844 149.199219 393.910156 148.570312 394.484375 C 148.441406 393.871094 147.914062 393.363281 147.347656 393.109375 C 146.773438 392.851562 146.140625 392.78125 145.519531 392.71875 C 144.894531 392.652344 144.261719 392.578125 143.691406 392.316406 C 143.59375 393.226562 143.230469 393.925781 142.613281 394.605469 C 142.363281 394.878906 142.0625 395.132812 141.699219 395.1875 C 141.464844 395.222656 141.222656 395.175781 140.992188 395.113281 C 140.15625 394.886719 139.367188 394.507812 138.667969 394 C 137.527344 394.394531 136.851562 395.585938 135.675781 395.847656 C 135.125 395.96875 134.535156 395.859375 133.980469 395.984375 C 133.546875 396.078125 133.160156 396.308594 132.730469 396.433594 C 131.980469 396.65625 131.125 396.550781 130.453125 396.953125 C 130.097656 396.148438 129.234375 395.492188 128.390625 395.25 C 127.890625 395.109375 127.367188 395.097656 126.859375 394.988281 C 125.890625 394.785156 124.835938 394.039062 124.25 393.246094 C 123.816406 393.644531 123.734375 393.722656 123.222656 394.019531 C 122.707031 394.316406 122.105469 394.492188 121.523438 394.40625 C 120.992188 394.328125 120.503906 394.023438 120.160156 393.609375 C 119.816406 393.195312 119.539062 392.507812 119.46875 391.972656 C 119.023438 392.6875 118.199219 393.128906 117.363281 393.214844 C 116.789062 393.273438 116.207031 393.179688 115.640625 393.285156 C 114.847656 393.4375 114.011719 394.109375 113.679688 394.84375 C 112.980469 394.328125 112.039062 394.261719 111.175781 394.378906 C 109.789062 394.570312 108.496094 395.179688 107.144531 395.539062 C 105.585938 395.957031 103.402344 395.96875 102.171875 395.492188 C 101.738281 394.046875 101.714844 392.480469 102.101562 391.019531 C 102.40625 389.875 102.953125 388.804688 103.257812 387.664062 C 103.566406 386.519531 103.636719 385.113281 102.976562 384.128906 C 103.34375 383.832031 103.707031 383.539062 104.007812 383.179688 C 104.308594 382.820312 104.542969 382.398438 104.605469 381.933594 C 104.671875 381.398438 104.503906 380.851562 104.582031 380.316406 C 104.695312 379.542969 105.289062 378.941406 105.847656 378.398438 C 105.085938 378.203125 104.085938 377.882812 103.667969 377.21875 C 103.328125 376.671875 103.355469 375.960938 103.582031 375.363281 C 103.8125 374.761719 104.21875 374.25 104.617188 373.75 C 103.882812 372.886719 103.035156 371.992188 102.800781 370.882812 C 102.683594 370.339844 102.703125 369.777344 102.597656 369.230469 C 102.496094 368.683594 102.234375 368.125 101.738281 367.871094 C 101.597656 367.800781 101.4375 367.753906 101.300781 367.671875 C 101.164062 367.585938 101.042969 367.449219 101.042969 367.289062 L 101.042969 367.285156 C 100.984375 365.703125 101.820312 364.222656 102.042969 362.652344 C 102.105469 362.207031 102.117188 361.75 102.261719 361.328125 C 102.484375 360.660156 103.296875 360.109375 103.796875 359.609375 C 103.414062 359.105469 103.027344 358.589844 102.785156 358.003906 C 102.539062 357.417969 102.445312 356.742188 102.667969 356.148438 C 102.765625 355.890625 102.921875 355.648438 103.101562 355.441406 C 103.726562 354.722656 104.648438 354.34375 105.535156 353.996094 L 105.546875 353.992188 C 105.226562 353.464844 105.144531 352.832031 105.089844 352.214844 C 105.039062 351.597656 104.996094 350.964844 104.75 350.402344 C 104.5 349.839844 103.984375 349.34375 103.363281 349.316406 C 103.8125 348.65625 103.863281 347.636719 103.660156 346.867188 C 103.453125 346.09375 103.085938 345.371094 102.882812 344.601562 C 102.683594 343.828125 102.664062 342.949219 103.117188 342.292969 C 102.046875 341.691406 100.957031 341.074219 100.320312 340.023438 C 100.078125 339.628906 99.914062 339.160156 99.996094 338.703125 C 100.058594 338.359375 100.257812 338.054688 100.472656 337.777344 C 100.824219 337.324219 101.226562 336.910156 101.679688 336.554688 C 101.980469 336.316406 102.304688 336.09375 102.542969 335.792969 C 102.78125 335.492188 102.925781 335.082031 102.792969 334.714844 C 102.726562 334.109375 102.746094 333.378906 102.9375 332.796875 C 103.152344 332.144531 103.632812 331.601562 103.828125 330.945312 C 104.054688 330.191406 103.878906 329.304688 103.363281 328.714844 C 103.726562 328.5625 104.097656 328.398438 104.359375 328.105469 C 104.589844 327.839844 104.707031 327.496094 104.796875 327.152344 C 105.046875 326.199219 105.132812 325.210938 105.21875 324.226562 C 105.230469 324.132812 105.238281 324.027344 105.183594 323.945312 C 105.132812 323.859375 104.816406 323.777344 104.753906 323.855469 C 103.667969 323.59375 102.777344 322.648438 102.578125 321.546875 C 102.378906 320.441406 102.890625 319.25 103.820312 318.628906 C 103.007812 318.117188 102.441406 317.222656 102.148438 316.308594 C 101.859375 315.394531 101.765625 314.429688 101.617188 313.484375 C 101.472656 312.535156 101.261719 311.574219 100.769531 310.753906 C 101.539062 310.171875 102.371094 309.613281 102.625 308.722656 C 102.816406 308.074219 102.769531 307.375 102.925781 306.714844 C 103.140625 305.804688 103.738281 304.992188 104.542969 304.523438 C 104.148438 304.019531 103.753906 303.367188 103.558594 302.757812 C 103.359375 302.148438 103.355469 301.449219 103.6875 300.898438 C 104.101562 300.199219 105.035156 299.84375 105.828125 299.65625 L 105.863281 299.65625 C 105.46875 299.367188 105.484375 299.386719 105.199219 298.988281 C 104.855469 298.503906 104.707031 297.90625 104.617188 297.316406 C 104.527344 296.726562 104.488281 296.125 104.320312 295.554688 C 104.335938 295.144531 104.117188 294.664062 103.773438 294.441406 C 103.550781 294.296875 103.253906 294.203125 103.144531 293.957031 C 103.074219 293.796875 103.109375 293.609375 103.199219 293.464844 C 103.289062 293.316406 103.449219 293.183594 103.601562 293.097656 C 103.554688 291.464844 102.886719 289.921875 102.464844 288.34375 C 101.945312 286.40625 101.785156 284.375 102 282.378906 C 103.234375 281.90625 105.59375 282.023438 107.152344 282.441406 C 108.503906 282.800781 109.796875 283.40625 111.183594 283.601562 C 112.046875 283.71875 112.988281 283.652344 113.691406 283.136719 C 114.019531 283.871094 114.859375 284.546875 115.652344 284.691406 C 116.21875 284.800781 116.800781 284.707031 117.371094 284.765625 C 118.214844 284.851562 119.03125 285.292969 119.480469 286.007812 C 119.550781 285.472656 119.832031 284.789062 120.171875 284.371094 C 120.515625 283.957031 121.003906 283.65625 121.53125 283.574219 C 122.121094 283.484375 122.71875 283.660156 123.230469 283.960938 C 123.746094 284.253906 123.824219 284.332031 124.257812 284.734375 C 124.847656 283.941406 125.902344 283.195312 126.867188 282.988281 C 127.375 282.882812 127.902344 282.871094 128.398438 282.726562 C 129.246094 282.484375 130.109375 281.832031 130.460938 281.023438 C 131.136719 281.425781 131.988281 281.320312 132.742188 281.546875 C 133.164062 281.671875 133.554688 281.898438 133.992188 281.996094 C 134.546875 282.117188 135.132812 282.007812 135.6875 282.132812 C 136.863281 282.394531 137.539062 283.589844 138.675781 283.976562 C 139.375 283.46875 140.167969 283.089844 141.003906 282.867188 C 141.234375 282.804688 141.472656 282.753906 141.707031 282.792969 C 142.074219 282.847656 142.378906 283.097656 142.621094 283.375 C 143.234375 284.054688 143.601562 284.753906 143.703125 285.664062 C 144.273438 285.402344 144.90625 285.328125 145.527344 285.261719 C 146.148438 285.195312 146.78125 285.125 147.355469 284.871094 C 147.929688 284.617188 148.453125 284.105469 148.578125 283.492188 C 149.207031 284.074219 150.167969 284.261719 150.96875 283.96875 C 151.484375 283.777344 151.914062 283.417969 152.414062 283.203125 C 153.390625 282.78125 154.460938 282.960938 155.511719 283.136719 C 156.101562 282.160156 156.890625 281.3125 157.8125 280.652344 C 158.070312 280.46875 158.339844 280.300781 158.648438 280.25 C 159.015625 280.195312 159.386719 280.316406 159.71875 280.476562 C 160.902344 281.050781 161.8125 282.160156 162.148438 283.433594 L 162.144531 283.242188 C 163.027344 282.847656 164.054688 282.789062 164.980469 283.074219 C 165.660156 283.285156 166.277344 283.671875 166.960938 283.886719 C 167.640625 284.097656 168.464844 284.089844 168.984375 283.601562 C 169.230469 284.308594 169.867188 284.917969 170.585938 285.148438 C 171.609375 285.472656 172.796875 285.109375 173.75 285.597656 C 174.113281 284.75 174.640625 283.917969 175.292969 283.265625 C 175.515625 283.042969 175.769531 282.832031 176.074219 282.757812 C 176.441406 282.667969 176.820312 282.789062 177.171875 282.929688 C 178.042969 283.277344 178.394531 283.402344 179.148438 283.964844 C 179.75 283.359375 180.382812 282.734375 181.199219 282.464844 C 181.914062 282.230469 182.703125 282.300781 183.417969 282.066406 C 183.925781 281.90625 184.382812 281.597656 184.902344 281.480469 C 185.25 281.40625 185.609375 281.417969 185.964844 281.386719 C 186.316406 281.355469 186.683594 281.273438 186.953125 281.042969 C 187.378906 281.757812 188.03125 282.496094 188.808594 282.792969 C 189.757812 283.15625 190.921875 282.738281 191.777344 283.28125 C 192.113281 283.492188 192.347656 283.828125 192.625 284.109375 C 192.898438 284.394531 193.257812 284.65625 193.652344 284.632812 C 194.324219 284.167969 195.078125 283.710938 195.835938 283.410156 C 196.039062 283.328125 196.25 283.257812 196.46875 283.285156 C 196.75 283.328125 196.976562 283.542969 197.164062 283.761719 C 197.683594 284.378906 198.050781 285.121094 198.230469 285.90625 C 198.648438 285.28125 199.476562 284.960938 200.222656 284.839844 C 200.96875 284.722656 201.738281 284.710938 202.441406 284.429688 C 203.042969 284.1875 203.566406 283.742188 203.902344 283.1875 C 204.640625 283.75 205.734375 283.78125 206.640625 283.582031 C 207.550781 283.386719 208.390625 282.96875 209.269531 282.671875 C 211.179688 282.015625 213.632812 281.910156 215.601562 282.378906 C 215.816406 284.371094 215.65625 286.402344 215.136719 288.339844 C 214.710938 289.921875 214.046875 291.460938 214 293.097656 C 214.152344 293.175781 214.3125 293.3125 214.402344 293.460938 C 214.496094 293.609375 214.527344 293.800781 214.457031 293.957031 C 214.347656 294.203125 214.050781 294.292969 213.828125 294.4375 C 213.484375 294.660156 213.265625 295.144531 213.28125 295.550781 C 213.117188 296.125 213.078125 296.722656 212.984375 297.3125 C 212.894531 297.902344 212.746094 298.5 212.402344 298.988281 C 212.117188 299.382812 212.132812 299.363281 211.738281 299.65625 L 211.773438 299.65625 C 212.566406 299.839844 213.496094 300.199219 213.914062 300.898438 C 214.242188 301.449219 214.242188 302.148438 214.046875 302.753906 C 213.847656 303.363281 213.457031 304.015625 213.058594 304.519531 C 213.863281 304.992188 214.464844 305.804688 214.675781 306.714844 C 214.828125 307.371094 214.789062 308.066406 214.976562 308.722656 C 215.234375 309.609375 216.0625 310.171875 216.835938 310.75 C 216.335938 311.574219 216.128906 312.535156 215.984375 313.480469 C 215.835938 314.429688 215.746094 315.394531 215.453125 316.308594 C 215.160156 317.222656 214.59375 318.117188 213.78125 318.625 C 214.710938 319.25 215.21875 320.445312 215.023438 321.542969 C 214.828125 322.644531 213.9375 323.589844 212.847656 323.851562 C 212.785156 323.777344 212.46875 323.859375 212.417969 323.941406 C 212.371094 324.027344 212.375 324.128906 212.382812 324.226562 C 212.46875 325.210938 212.558594 326.199219 212.808594 327.152344 C 212.894531 327.492188 213.011719 327.835938 213.242188 328.101562 C 213.5 328.398438 213.875 328.558594 214.238281 328.710938 C 213.722656 329.300781 213.550781 330.191406 213.773438 330.941406 C 213.96875 331.601562 214.449219 332.144531 214.664062 332.796875 C 214.855469 333.375 214.878906 334.105469 214.808594 334.714844 C 214.679688 335.074219 214.820312 335.488281 215.058594 335.789062 C 215.296875 336.09375 215.621094 336.3125 215.925781 336.550781 C 216.371094 336.910156 216.777344 337.320312 217.128906 337.773438 C 217.34375 338.054688 217.542969 338.359375 217.605469 338.703125 C 217.675781 339.15625 217.503906 339.621094 217.261719 340.019531 Z M 217.261719 340.019531 " fill-opacity="1" fill-rule="nonzero"/><g clip-path="url(#06325169d4)"><path fill="#a6a6a6" d="M 98.847656 279.0625 L 218.71875 279.0625 L 218.71875 398.929688 L 98.847656 398.929688 Z M 98.847656 279.0625 " fill-opacity="1" fill-rule="nonzero"/></g><path fill="#ff0000" d="M 383.476562 340.019531 C 382.835938 341.070312 381.75 341.691406 380.675781 342.289062 C 381.128906 342.945312 381.113281 343.824219 380.910156 344.597656 C 380.710938 345.371094 380.339844 346.089844 380.136719 346.863281 C 379.929688 347.636719 379.984375 348.65625 380.429688 349.3125 C 379.816406 349.339844 379.296875 349.835938 379.046875 350.402344 C 378.796875 350.96875 378.757812 351.597656 378.703125 352.210938 C 378.652344 352.828125 378.570312 353.464844 378.246094 353.992188 L 378.261719 353.996094 C 379.144531 354.34375 380.066406 354.71875 380.691406 355.4375 C 380.875 355.652344 381.03125 355.890625 381.128906 356.148438 C 381.347656 356.742188 381.257812 357.417969 381.011719 358.003906 C 380.765625 358.589844 380.378906 359.101562 379.996094 359.609375 C 380.496094 360.101562 381.308594 360.660156 381.535156 361.324219 C 381.675781 361.75 381.691406 362.207031 381.753906 362.648438 C 381.972656 364.21875 382.808594 365.695312 382.753906 367.285156 C 382.75 367.449219 382.632812 367.585938 382.492188 367.667969 C 382.355469 367.75 382.199219 367.796875 382.054688 367.871094 C 381.5625 368.121094 381.300781 368.683594 381.199219 369.226562 C 381.09375 369.773438 381.109375 370.339844 380.996094 370.882812 C 380.761719 371.988281 379.914062 372.886719 379.175781 373.746094 C 379.578125 374.25 379.984375 374.761719 380.210938 375.359375 C 380.441406 375.960938 380.46875 376.671875 380.125 377.214844 C 379.710938 377.878906 378.707031 378.199219 377.945312 378.398438 C 378.507812 378.941406 379.101562 379.539062 379.210938 380.3125 C 379.289062 380.847656 379.121094 381.394531 379.191406 381.933594 C 379.25 382.394531 379.488281 382.824219 379.789062 383.179688 C 380.089844 383.53125 380.457031 383.832031 380.816406 384.125 C 380.160156 385.109375 380.226562 386.515625 380.535156 387.660156 C 380.84375 388.804688 381.390625 389.871094 381.691406 391.015625 C 382.082031 392.476562 382.054688 394.042969 381.625 395.492188 C 379.660156 395.957031 377.382812 395.960938 375.472656 395.308594 C 374.59375 395.007812 373.753906 394.59375 372.84375 394.398438 C 371.9375 394.203125 370.84375 394.230469 370.105469 394.792969 C 369.765625 394.234375 369.246094 393.789062 368.644531 393.550781 C 367.945312 393.269531 367.171875 393.257812 366.425781 393.140625 C 365.679688 393.019531 364.851562 392.699219 364.433594 392.070312 C 364.253906 392.855469 363.886719 393.597656 363.363281 394.214844 C 363.179688 394.433594 362.953125 394.648438 362.667969 394.691406 C 362.453125 394.722656 362.242188 394.648438 362.039062 394.570312 C 361.277344 394.273438 360.527344 393.816406 359.855469 393.34375 C 359.460938 393.324219 359.101562 393.582031 358.828125 393.867188 C 358.550781 394.152344 358.3125 394.488281 357.980469 394.699219 C 357.121094 395.238281 355.953125 394.816406 355.011719 395.183594 C 354.234375 395.488281 353.578125 396.21875 353.15625 396.933594 C 352.882812 396.703125 352.519531 396.621094 352.167969 396.59375 C 351.8125 396.5625 351.453125 396.578125 351.105469 396.496094 C 350.585938 396.382812 350.128906 396.074219 349.621094 395.910156 C 348.902344 395.679688 348.117188 395.75 347.398438 395.515625 C 346.589844 395.25 345.953125 394.621094 345.351562 394.011719 C 344.597656 394.578125 344.25 394.703125 343.375 395.050781 C 343.023438 395.1875 342.644531 395.3125 342.277344 395.222656 C 341.972656 395.144531 341.71875 394.933594 341.496094 394.710938 C 340.84375 394.0625 340.316406 393.226562 339.953125 392.378906 C 339 392.871094 337.8125 392.507812 336.789062 392.832031 C 336.074219 393.058594 335.433594 393.667969 335.1875 394.378906 C 334.667969 393.882812 333.84375 393.882812 333.164062 394.09375 C 332.480469 394.304688 331.863281 394.691406 331.179688 394.90625 C 330.257812 395.191406 329.230469 395.132812 328.347656 394.738281 L 328.347656 394.546875 C 328.015625 395.816406 327.101562 396.925781 325.921875 397.5 C 325.585938 397.664062 325.214844 397.785156 324.851562 397.730469 C 324.542969 397.679688 324.269531 397.511719 324.015625 397.328125 C 323.09375 396.667969 322.304688 395.816406 321.714844 394.84375 C 320.664062 395.023438 319.59375 395.203125 318.617188 394.777344 C 318.117188 394.5625 317.683594 394.199219 317.171875 394.011719 C 316.371094 393.714844 315.410156 393.910156 314.78125 394.484375 C 314.65625 393.871094 314.128906 393.363281 313.558594 393.109375 C 312.984375 392.851562 312.351562 392.78125 311.730469 392.71875 C 311.109375 392.652344 310.476562 392.578125 309.90625 392.316406 C 309.804688 393.226562 309.441406 393.925781 308.824219 394.605469 C 308.578125 394.878906 308.277344 395.132812 307.910156 395.1875 C 307.675781 395.222656 307.433594 395.175781 307.207031 395.113281 C 306.371094 394.886719 305.578125 394.507812 304.878906 394 C 303.742188 394.394531 303.0625 395.585938 301.890625 395.847656 C 301.335938 395.96875 300.746094 395.859375 300.191406 395.984375 C 299.757812 396.078125 299.371094 396.308594 298.945312 396.433594 C 298.191406 396.65625 297.339844 396.550781 296.664062 396.953125 C 296.308594 396.148438 295.445312 395.492188 294.601562 395.25 C 294.105469 395.109375 293.578125 395.097656 293.070312 394.988281 C 292.105469 394.785156 291.046875 394.039062 290.460938 393.246094 C 290.027344 393.644531 289.949219 393.722656 289.433594 394.019531 C 288.921875 394.316406 288.316406 394.492188 287.734375 394.40625 C 287.203125 394.328125 286.714844 394.023438 286.375 393.609375 C 286.03125 393.195312 285.75 392.507812 285.683594 391.972656 C 285.234375 392.6875 284.414062 393.128906 283.574219 393.214844 C 283.003906 393.273438 282.417969 393.179688 281.851562 393.285156 C 281.0625 393.4375 280.222656 394.109375 279.890625 394.84375 C 279.191406 394.328125 278.253906 394.261719 277.386719 394.378906 C 276 394.570312 274.707031 395.179688 273.355469 395.539062 C 271.796875 395.957031 269.617188 395.96875 268.382812 395.492188 C 267.949219 394.046875 267.925781 392.480469 268.316406 391.019531 C 268.621094 389.875 269.164062 388.804688 269.472656 387.664062 C 269.78125 386.519531 269.847656 385.113281 269.191406 384.128906 C 269.554688 383.832031 269.917969 383.539062 270.21875 383.179688 C 270.519531 382.820312 270.757812 382.398438 270.816406 381.933594 C 270.886719 381.398438 270.71875 380.851562 270.796875 380.316406 C 270.910156 379.542969 271.5 378.941406 272.0625 378.398438 C 271.300781 378.203125 270.300781 377.882812 269.882812 377.21875 C 269.539062 376.671875 269.566406 375.960938 269.792969 375.363281 C 270.023438 374.761719 270.429688 374.25 270.832031 373.75 C 270.097656 372.886719 269.25 371.992188 269.011719 370.882812 C 268.898438 370.339844 268.917969 369.777344 268.808594 369.230469 C 268.707031 368.683594 268.445312 368.125 267.953125 367.871094 C 267.808594 367.800781 267.652344 367.753906 267.515625 367.671875 C 267.375 367.585938 267.257812 367.449219 267.253906 367.289062 L 267.253906 367.285156 C 267.199219 365.703125 268.03125 364.222656 268.253906 362.652344 C 268.316406 362.207031 268.328125 361.75 268.472656 361.328125 C 268.699219 360.660156 269.507812 360.109375 270.007812 359.609375 C 269.625 359.105469 269.242188 358.589844 268.996094 358.003906 C 268.75 357.417969 268.660156 356.742188 268.878906 356.148438 C 268.976562 355.890625 269.132812 355.648438 269.316406 355.441406 C 269.9375 354.722656 270.863281 354.34375 271.746094 353.996094 L 271.761719 353.992188 C 271.4375 353.464844 271.359375 352.832031 271.300781 352.214844 C 271.25 351.597656 271.210938 350.964844 270.960938 350.402344 C 270.714844 349.839844 270.195312 349.34375 269.578125 349.316406 C 270.023438 348.65625 270.078125 347.636719 269.871094 346.867188 C 269.667969 346.09375 269.296875 345.371094 269.097656 344.601562 C 268.894531 343.828125 268.878906 342.949219 269.332031 342.292969 C 268.257812 341.691406 267.171875 341.074219 266.53125 340.023438 C 266.289062 339.628906 266.125 339.160156 266.207031 338.703125 C 266.269531 338.359375 266.46875 338.054688 266.683594 337.777344 C 267.035156 337.324219 267.441406 336.910156 267.890625 336.554688 C 268.191406 336.316406 268.515625 336.09375 268.753906 335.792969 C 268.992188 335.492188 269.136719 335.082031 269.007812 334.714844 C 268.9375 334.109375 268.957031 333.378906 269.148438 332.796875 C 269.363281 332.144531 269.84375 331.601562 270.039062 330.945312 C 270.265625 330.191406 270.09375 329.304688 269.578125 328.714844 C 269.9375 328.5625 270.3125 328.398438 270.570312 328.105469 C 270.800781 327.839844 270.917969 327.496094 271.007812 327.152344 C 271.257812 326.199219 271.347656 325.210938 271.433594 324.226562 C 271.441406 324.132812 271.449219 324.027344 271.394531 323.945312 C 271.347656 323.859375 271.027344 323.777344 270.96875 323.855469 C 269.882812 323.59375 268.988281 322.648438 268.792969 321.546875 C 268.59375 320.441406 269.105469 319.25 270.035156 318.628906 C 269.222656 318.117188 268.652344 317.222656 268.359375 316.308594 C 268.070312 315.394531 267.976562 314.429688 267.832031 313.484375 C 267.6875 312.535156 267.472656 311.574219 266.980469 310.753906 C 267.753906 310.171875 268.582031 309.613281 268.839844 308.722656 C 269.027344 308.074219 268.984375 307.375 269.140625 306.714844 C 269.351562 305.804688 269.953125 304.992188 270.757812 304.523438 C 270.359375 304.019531 269.96875 303.367188 269.769531 302.757812 C 269.570312 302.148438 269.566406 301.449219 269.898438 300.898438 C 270.316406 300.199219 271.246094 299.84375 272.042969 299.65625 L 272.074219 299.65625 C 271.679688 299.367188 271.695312 299.386719 271.414062 298.988281 C 271.066406 298.503906 270.917969 297.90625 270.828125 297.316406 C 270.738281 296.726562 270.699219 296.125 270.535156 295.554688 C 270.546875 295.144531 270.328125 294.664062 269.988281 294.441406 C 269.761719 294.296875 269.46875 294.203125 269.359375 293.957031 C 269.289062 293.796875 269.320312 293.609375 269.410156 293.464844 C 269.5 293.316406 269.664062 293.183594 269.816406 293.097656 C 269.765625 291.464844 269.097656 289.921875 268.679688 288.34375 C 268.15625 286.40625 268 284.375 268.210938 282.378906 C 269.445312 281.90625 271.804688 282.023438 273.367188 282.441406 C 274.71875 282.800781 276.007812 283.40625 277.398438 283.601562 C 278.257812 283.71875 279.199219 283.652344 279.902344 283.136719 C 280.234375 283.871094 281.070312 284.546875 281.863281 284.691406 C 282.429688 284.800781 283.011719 284.707031 283.585938 284.765625 C 284.425781 284.851562 285.246094 285.292969 285.691406 286.007812 C 285.765625 285.472656 286.042969 284.789062 286.382812 284.371094 C 286.726562 283.957031 287.214844 283.65625 287.746094 283.574219 C 288.332031 283.484375 288.929688 283.660156 289.445312 283.960938 C 289.957031 284.253906 290.039062 284.332031 290.472656 284.734375 C 291.0625 283.941406 292.113281 283.195312 293.082031 282.988281 C 293.585938 282.882812 294.113281 282.871094 294.613281 282.726562 C 295.460938 282.484375 296.320312 281.832031 296.675781 281.023438 C 297.351562 281.425781 298.203125 281.320312 298.953125 281.546875 C 299.378906 281.671875 299.769531 281.898438 300.203125 281.996094 C 300.757812 282.117188 301.34375 282.007812 301.898438 282.132812 C 303.074219 282.394531 303.75 283.589844 304.890625 283.976562 C 305.589844 283.46875 306.378906 283.089844 307.214844 282.867188 C 307.445312 282.804688 307.6875 282.753906 307.921875 282.792969 C 308.285156 282.847656 308.589844 283.097656 308.835938 283.375 C 309.449219 284.054688 309.816406 284.753906 309.914062 285.664062 C 310.484375 285.402344 311.117188 285.328125 311.738281 285.261719 C 312.363281 285.195312 312.996094 285.125 313.566406 284.871094 C 314.140625 284.617188 314.664062 284.105469 314.789062 283.492188 C 315.421875 284.074219 316.382812 284.261719 317.183594 283.96875 C 317.695312 283.777344 318.125 283.417969 318.625 283.203125 C 319.605469 282.78125 320.671875 282.960938 321.722656 283.136719 C 322.3125 282.160156 323.101562 281.3125 324.027344 280.652344 C 324.28125 280.46875 324.550781 280.300781 324.859375 280.25 C 325.230469 280.195312 325.597656 280.316406 325.929688 280.476562 C 327.113281 281.050781 328.023438 282.160156 328.359375 283.433594 L 328.355469 283.242188 C 329.242188 282.847656 330.265625 282.789062 331.191406 283.074219 C 331.875 283.285156 332.488281 283.671875 333.171875 283.886719 C 333.855469 284.097656 334.675781 284.089844 335.195312 283.601562 C 335.441406 284.308594 336.082031 284.917969 336.800781 285.148438 C 337.824219 285.472656 339.007812 285.109375 339.960938 285.597656 C 340.328125 284.75 340.855469 283.917969 341.507812 283.265625 C 341.730469 283.042969 341.980469 282.832031 342.285156 282.757812 C 342.652344 282.667969 343.035156 282.789062 343.382812 282.929688 C 344.253906 283.277344 344.605469 283.402344 345.359375 283.964844 C 345.960938 283.359375 346.59375 282.734375 347.410156 282.464844 C 348.125 282.230469 348.917969 282.300781 349.632812 282.066406 C 350.140625 281.90625 350.597656 281.597656 351.117188 281.480469 C 351.464844 281.40625 351.820312 281.417969 352.175781 281.386719 C 352.53125 281.355469 352.894531 281.273438 353.164062 281.042969 C 353.589844 281.757812 354.242188 282.496094 355.019531 282.792969 C 355.96875 283.15625 357.132812 282.738281 357.988281 283.28125 C 358.328125 283.492188 358.5625 283.828125 358.835938 284.109375 C 359.113281 284.394531 359.46875 284.65625 359.867188 284.632812 C 360.535156 284.167969 361.289062 283.710938 362.050781 283.410156 C 362.25 283.328125 362.464844 283.257812 362.679688 283.285156 C 362.964844 283.328125 363.1875 283.542969 363.375 283.761719 C 363.894531 284.378906 364.261719 285.121094 364.441406 285.90625 C 364.863281 285.28125 365.691406 284.960938 366.433594 284.839844 C 367.179688 284.722656 367.953125 284.710938 368.65625 284.429688 C 369.257812 284.1875 369.777344 283.742188 370.113281 283.1875 C 370.855469 283.75 371.945312 283.78125 372.855469 283.582031 C 373.761719 283.386719 374.605469 282.96875 375.480469 282.671875 C 377.394531 282.015625 379.847656 281.910156 381.816406 282.378906 C 382.027344 284.371094 381.867188 286.402344 381.347656 288.339844 C 380.925781 289.921875 380.257812 291.460938 380.210938 293.097656 C 380.363281 293.175781 380.523438 293.3125 380.617188 293.460938 C 380.710938 293.609375 380.738281 293.800781 380.667969 293.957031 C 380.558594 294.203125 380.265625 294.292969 380.039062 294.4375 C 379.699219 294.660156 379.480469 295.144531 379.492188 295.550781 C 379.332031 296.125 379.289062 296.722656 379.199219 297.3125 C 379.105469 297.902344 378.960938 298.5 378.613281 298.988281 C 378.332031 299.382812 378.347656 299.363281 377.953125 299.65625 L 377.984375 299.65625 C 378.78125 299.839844 379.707031 300.199219 380.128906 300.898438 C 380.457031 301.449219 380.457031 302.148438 380.257812 302.753906 C 380.058594 303.363281 379.667969 304.015625 379.269531 304.519531 C 380.074219 304.992188 380.675781 305.804688 380.886719 306.714844 C 381.039062 307.371094 381 308.066406 381.1875 308.722656 C 381.445312 309.609375 382.273438 310.171875 383.046875 310.75 C 382.550781 311.574219 382.339844 312.535156 382.195312 313.480469 C 382.050781 314.429688 381.957031 315.394531 381.664062 316.308594 C 381.375 317.222656 380.808594 318.117188 379.992188 318.625 C 380.925781 319.25 381.429688 320.445312 381.234375 321.542969 C 381.039062 322.644531 380.148438 323.589844 379.058594 323.851562 C 379 323.777344 378.679688 323.859375 378.632812 323.941406 C 378.582031 324.027344 378.589844 324.128906 378.59375 324.226562 C 378.679688 325.210938 378.769531 326.199219 379.019531 327.152344 C 379.109375 327.492188 379.222656 327.835938 379.457031 328.101562 C 379.714844 328.398438 380.089844 328.558594 380.449219 328.710938 C 379.933594 329.300781 379.761719 330.191406 379.988281 330.941406 C 380.183594 331.601562 380.664062 332.144531 380.878906 332.796875 C 381.070312 333.375 381.089844 334.105469 381.019531 334.714844 C 380.890625 335.074219 381.035156 335.488281 381.273438 335.789062 C 381.511719 336.09375 381.835938 336.3125 382.136719 336.550781 C 382.582031 336.910156 382.992188 337.320312 383.34375 337.773438 C 383.558594 338.054688 383.757812 338.359375 383.820312 338.703125 C 383.886719 339.15625 383.71875 339.621094 383.476562 340.019531 Z M 383.476562 340.019531 " fill-opacity="1" fill-rule="nonzero"/><g clip-path="url(#efc4244d21)"><path fill="#a6a6a6" d="M 265.0625 279.0625 L 384.929688 279.0625 L 384.929688 398.929688 L 265.0625 398.929688 Z M 265.0625 279.0625 " fill-opacity="1" fill-rule="nonzero"/></g><path fill="#ff0000" d="M 217.261719 546.679688 C 216.625 547.730469 215.539062 548.347656 214.464844 548.949219 C 214.917969 549.605469 214.902344 550.484375 214.699219 551.257812 C 214.496094 552.027344 214.128906 552.75 213.921875 553.523438 C 213.71875 554.292969 213.769531 555.3125 214.21875 555.972656 C 213.601562 556 213.085938 556.492188 212.832031 557.058594 C 212.585938 557.625 212.546875 558.253906 212.492188 558.871094 C 212.441406 559.488281 212.355469 560.125 212.035156 560.648438 L 212.050781 560.652344 C 212.933594 561.003906 213.855469 561.378906 214.480469 562.097656 C 214.664062 562.308594 214.820312 562.546875 214.914062 562.804688 C 215.132812 563.402344 215.042969 564.078125 214.800781 564.660156 C 214.554688 565.246094 214.164062 565.761719 213.785156 566.265625 C 214.28125 566.761719 215.097656 567.316406 215.324219 567.984375 C 215.464844 568.40625 215.476562 568.863281 215.542969 569.308594 C 215.761719 570.878906 216.59375 572.355469 216.542969 573.941406 L 216.542969 573.945312 C 216.539062 574.105469 216.417969 574.242188 216.28125 574.324219 C 216.140625 574.410156 215.984375 574.457031 215.84375 574.527344 C 215.347656 574.78125 215.089844 575.339844 214.984375 575.886719 C 214.882812 576.433594 214.898438 576.996094 214.78125 577.539062 C 214.546875 578.644531 213.699219 579.542969 212.964844 580.40625 C 213.367188 580.910156 213.773438 581.417969 214 582.019531 C 214.230469 582.617188 214.253906 583.328125 213.914062 583.871094 C 213.496094 584.539062 212.492188 584.855469 211.734375 585.054688 C 212.292969 585.597656 212.886719 586.199219 213 586.96875 C 213.074219 587.507812 212.910156 588.054688 212.980469 588.589844 C 213.039062 589.054688 213.273438 589.480469 213.574219 589.835938 C 213.875 590.191406 214.246094 590.488281 214.605469 590.785156 C 213.949219 591.765625 214.015625 593.175781 214.324219 594.316406 C 214.632812 595.460938 215.179688 596.527344 215.480469 597.671875 C 215.867188 599.132812 215.839844 600.703125 215.410156 602.148438 C 213.445312 602.617188 211.171875 602.621094 209.257812 601.964844 C 208.382812 601.664062 207.539062 601.25 206.632812 601.054688 C 205.726562 600.859375 204.632812 600.890625 203.894531 601.449219 C 203.554688 600.894531 203.035156 600.449219 202.433594 600.207031 C 201.734375 599.925781 200.957031 599.914062 200.214844 599.796875 C 199.46875 599.679688 198.640625 599.355469 198.21875 598.730469 C 198.039062 599.515625 197.671875 600.257812 197.152344 600.875 C 196.96875 601.09375 196.742188 601.308594 196.457031 601.351562 C 196.242188 601.378906 196.03125 601.308594 195.828125 601.226562 C 195.066406 600.929688 194.3125 600.472656 193.644531 600.003906 C 193.246094 599.980469 192.890625 600.242188 192.613281 600.527344 C 192.339844 600.808594 192.101562 601.144531 191.765625 601.355469 C 190.910156 601.898438 189.742188 601.476562 188.796875 601.84375 C 188.023438 602.144531 187.367188 602.875 186.945312 603.59375 C 186.671875 603.359375 186.308594 603.28125 185.953125 603.25 C 185.597656 603.222656 185.242188 603.234375 184.894531 603.15625 C 184.375 603.039062 183.917969 602.730469 183.410156 602.570312 C 182.691406 602.335938 181.902344 602.40625 181.1875 602.171875 C 180.375 601.90625 179.742188 601.277344 179.136719 600.671875 C 178.386719 601.234375 178.039062 601.359375 177.164062 601.707031 C 176.8125 601.847656 176.429688 601.96875 176.0625 601.878906 C 175.757812 601.804688 175.507812 601.589844 175.285156 601.371094 C 174.632812 600.722656 174.105469 599.886719 173.742188 599.039062 C 172.785156 599.527344 171.601562 599.164062 170.578125 599.488281 C 169.863281 599.71875 169.222656 600.324219 168.972656 601.035156 C 168.457031 600.542969 167.632812 600.539062 166.949219 600.75 C 166.269531 600.964844 165.652344 601.351562 164.96875 601.5625 C 164.042969 601.847656 163.019531 601.789062 162.132812 601.394531 L 162.136719 601.203125 C 161.800781 602.476562 160.890625 603.585938 159.710938 604.160156 C 159.375 604.320312 159.003906 604.441406 158.640625 604.386719 C 158.332031 604.335938 158.054688 604.167969 157.804688 603.984375 C 156.878906 603.328125 156.089844 602.476562 155.5 601.5 C 154.453125 601.679688 153.382812 601.859375 152.40625 601.433594 C 151.90625 601.21875 151.46875 600.859375 150.960938 600.667969 C 150.160156 600.375 149.199219 600.566406 148.570312 601.144531 C 148.441406 600.53125 147.914062 600.019531 147.347656 599.765625 C 146.773438 599.511719 146.140625 599.441406 145.519531 599.375 C 144.894531 599.308594 144.261719 599.234375 143.691406 598.972656 C 143.59375 599.886719 143.230469 600.585938 142.613281 601.261719 C 142.363281 601.539062 142.0625 601.789062 141.699219 601.847656 C 141.464844 601.882812 141.222656 601.832031 140.992188 601.769531 C 140.15625 601.542969 139.367188 601.167969 138.667969 600.660156 C 137.527344 601.050781 136.851562 602.242188 135.675781 602.503906 C 135.125 602.628906 134.535156 602.519531 133.980469 602.640625 C 133.546875 602.738281 133.160156 602.964844 132.730469 603.089844 C 131.980469 603.3125 131.125 603.210938 130.453125 603.613281 C 130.097656 602.808594 129.234375 602.152344 128.390625 601.910156 C 127.890625 601.765625 127.367188 601.757812 126.859375 601.648438 C 125.890625 601.441406 124.835938 600.695312 124.25 599.902344 C 123.816406 600.304688 123.734375 600.378906 123.222656 600.675781 C 122.707031 600.976562 122.105469 601.152344 121.523438 601.066406 C 120.992188 600.984375 120.503906 600.679688 120.160156 600.265625 C 119.816406 599.851562 119.539062 599.164062 119.46875 598.628906 C 119.023438 599.34375 118.199219 599.785156 117.363281 599.871094 C 116.789062 599.933594 116.207031 599.839844 115.640625 599.945312 C 114.847656 600.09375 114.011719 600.769531 113.679688 601.5 C 112.980469 600.984375 112.039062 600.917969 111.175781 601.039062 C 109.789062 601.230469 108.496094 601.835938 107.144531 602.199219 C 105.585938 602.613281 103.402344 602.625 102.171875 602.152344 C 101.738281 600.703125 101.714844 599.136719 102.101562 597.675781 C 102.40625 596.535156 102.953125 595.464844 103.257812 594.320312 C 103.566406 593.179688 103.636719 591.769531 102.976562 590.785156 C 103.34375 590.492188 103.707031 590.195312 104.007812 589.839844 C 104.308594 589.480469 104.542969 589.058594 104.605469 588.59375 C 104.671875 588.054688 104.503906 587.507812 104.582031 586.972656 C 104.695312 586.199219 105.289062 585.601562 105.847656 585.058594 C 105.085938 584.863281 104.085938 584.539062 103.667969 583.875 C 103.328125 583.332031 103.355469 582.621094 103.582031 582.019531 C 103.8125 581.421875 104.21875 580.90625 104.617188 580.40625 C 103.882812 579.546875 103.035156 578.652344 102.800781 577.542969 C 102.683594 577 102.703125 576.4375 102.597656 575.890625 C 102.496094 575.34375 102.234375 574.78125 101.738281 574.53125 C 101.597656 574.457031 101.4375 574.410156 101.300781 574.328125 C 101.164062 574.246094 101.042969 574.109375 101.042969 573.945312 C 100.984375 572.359375 101.820312 570.878906 102.042969 569.308594 C 102.105469 568.867188 102.117188 568.410156 102.261719 567.984375 C 102.484375 567.320312 103.296875 566.765625 103.796875 566.269531 C 103.414062 565.761719 103.027344 565.25 102.785156 564.664062 C 102.539062 564.078125 102.445312 563.402344 102.667969 562.808594 C 102.765625 562.546875 102.921875 562.308594 103.101562 562.097656 C 103.726562 561.378906 104.648438 561.003906 105.535156 560.65625 L 105.546875 560.652344 C 105.226562 560.121094 105.144531 559.488281 105.089844 558.875 C 105.039062 558.257812 104.996094 557.625 104.75 557.0625 C 104.5 556.5 103.984375 556.003906 103.363281 555.976562 C 103.8125 555.3125 103.863281 554.296875 103.660156 553.523438 C 103.453125 552.753906 103.085938 552.03125 102.882812 551.257812 C 102.683594 550.488281 102.664062 549.605469 103.117188 548.949219 C 102.046875 548.351562 100.957031 547.730469 100.320312 546.679688 C 100.078125 546.289062 99.914062 545.816406 99.996094 545.363281 C 100.058594 545.019531 100.257812 544.714844 100.472656 544.433594 C 100.824219 543.980469 101.226562 543.570312 101.679688 543.210938 C 101.980469 542.972656 102.304688 542.753906 102.542969 542.449219 C 102.78125 542.148438 102.925781 541.738281 102.792969 541.375 C 102.726562 540.769531 102.746094 540.039062 102.9375 539.457031 C 103.152344 538.804688 103.632812 538.261719 103.828125 537.601562 C 104.054688 536.851562 103.878906 535.960938 103.363281 535.371094 C 103.726562 535.21875 104.097656 535.058594 104.359375 534.761719 C 104.589844 534.496094 104.707031 534.152344 104.796875 533.8125 C 105.046875 532.855469 105.132812 531.867188 105.21875 530.886719 C 105.230469 530.789062 105.238281 530.683594 105.183594 530.601562 C 105.132812 530.519531 104.816406 530.4375 104.753906 530.511719 C 103.667969 530.25 102.777344 529.308594 102.578125 528.203125 C 102.378906 527.101562 102.890625 525.90625 103.820312 525.285156 C 103.007812 524.777344 102.441406 523.878906 102.148438 522.964844 C 101.859375 522.050781 101.765625 521.089844 101.617188 520.140625 C 101.472656 519.191406 101.261719 518.234375 100.769531 517.410156 C 101.539062 516.832031 102.371094 516.273438 102.625 515.378906 C 102.816406 514.730469 102.769531 514.03125 102.925781 513.375 C 103.140625 512.460938 103.738281 511.652344 104.542969 511.179688 C 104.148438 510.675781 103.753906 510.023438 103.558594 509.414062 C 103.359375 508.804688 103.355469 508.105469 103.6875 507.558594 C 104.101562 506.859375 105.035156 506.5 105.828125 506.316406 L 105.863281 506.316406 C 105.46875 506.023438 105.484375 506.042969 105.199219 505.648438 C 104.855469 505.164062 104.707031 504.5625 104.617188 503.972656 C 104.527344 503.382812 104.488281 502.785156 104.320312 502.210938 C 104.335938 501.804688 104.117188 501.320312 103.773438 501.097656 C 103.550781 500.953125 103.253906 500.859375 103.144531 500.617188 C 103.074219 500.457031 103.109375 500.269531 103.199219 500.121094 C 103.289062 499.976562 103.449219 499.839844 103.601562 499.757812 C 103.554688 498.125 102.886719 496.582031 102.464844 495 C 101.945312 493.0625 101.785156 491.03125 102 489.039062 C 103.234375 488.566406 105.59375 488.679688 107.152344 489.097656 C 108.503906 489.460938 109.796875 490.066406 111.183594 490.257812 C 112.046875 490.378906 112.988281 490.3125 113.691406 489.792969 C 114.019531 490.53125 114.859375 491.207031 115.652344 491.351562 C 116.21875 491.457031 116.800781 491.363281 117.371094 491.425781 C 118.214844 491.511719 119.03125 491.949219 119.480469 492.664062 C 119.550781 492.132812 119.832031 491.445312 120.171875 491.027344 C 120.515625 490.613281 121.003906 490.3125 121.53125 490.230469 C 122.121094 490.140625 122.71875 490.320312 123.230469 490.617188 C 123.746094 490.914062 123.824219 490.988281 124.257812 491.394531 C 124.847656 490.597656 125.902344 489.851562 126.867188 489.648438 C 127.375 489.542969 127.902344 489.527344 128.398438 489.386719 C 129.246094 489.144531 130.109375 488.492188 130.460938 487.683594 C 131.136719 488.085938 131.988281 487.976562 132.742188 488.203125 C 133.164062 488.328125 133.554688 488.558594 133.992188 488.652344 C 134.546875 488.777344 135.132812 488.667969 135.6875 488.789062 C 136.863281 489.050781 137.539062 490.246094 138.675781 490.636719 C 139.375 490.128906 140.167969 489.746094 141.003906 489.523438 C 141.234375 489.460938 141.472656 489.414062 141.707031 489.449219 C 142.074219 489.503906 142.378906 489.757812 142.621094 490.03125 C 143.234375 490.710938 143.601562 491.410156 143.703125 492.320312 C 144.273438 492.058594 144.90625 491.988281 145.527344 491.921875 C 146.148438 491.855469 146.78125 491.785156 147.355469 491.53125 C 147.929688 491.273438 148.453125 490.765625 148.578125 490.152344 C 149.207031 490.730469 150.167969 490.921875 150.96875 490.625 C 151.484375 490.4375 151.914062 490.074219 152.414062 489.859375 C 153.390625 489.441406 154.460938 489.617188 155.511719 489.792969 C 156.101562 488.820312 156.890625 487.972656 157.8125 487.308594 C 158.070312 487.128906 158.339844 486.957031 158.648438 486.90625 C 159.015625 486.851562 159.386719 486.972656 159.71875 487.136719 C 160.902344 487.710938 161.8125 488.820312 162.148438 490.089844 L 162.144531 489.898438 C 163.027344 489.507812 164.054688 489.445312 164.980469 489.730469 C 165.660156 489.941406 166.277344 490.332031 166.960938 490.542969 C 167.640625 490.753906 168.464844 490.75 168.984375 490.257812 C 169.230469 490.96875 169.867188 491.578125 170.585938 491.804688 C 171.609375 492.128906 172.796875 491.765625 173.75 492.257812 C 174.113281 491.410156 174.640625 490.578125 175.292969 489.925781 C 175.515625 489.703125 175.769531 489.492188 176.074219 489.414062 C 176.441406 489.324219 176.820312 489.449219 177.171875 489.585938 C 178.042969 489.933594 178.394531 490.0625 179.148438 490.625 C 179.75 490.015625 180.382812 489.390625 181.199219 489.125 C 181.914062 488.886719 182.703125 488.957031 183.417969 488.726562 C 183.925781 488.5625 184.382812 488.253906 184.902344 488.140625 C 185.25 488.0625 185.609375 488.078125 185.964844 488.042969 C 186.316406 488.015625 186.683594 487.929688 186.953125 487.703125 C 187.378906 488.417969 188.03125 489.152344 188.808594 489.453125 C 189.757812 489.816406 190.921875 489.394531 191.777344 489.9375 C 192.113281 490.148438 192.347656 490.484375 192.625 490.769531 C 192.898438 491.054688 193.257812 491.3125 193.652344 491.292969 C 194.324219 490.824219 195.078125 490.367188 195.835938 490.066406 C 196.039062 489.988281 196.25 489.914062 196.46875 489.945312 C 196.75 489.984375 196.976562 490.199219 197.164062 490.421875 C 197.683594 491.039062 198.050781 491.78125 198.230469 492.566406 C 198.648438 491.9375 199.476562 491.617188 200.222656 491.5 C 200.96875 491.378906 201.738281 491.367188 202.441406 491.085938 C 203.042969 490.84375 203.566406 490.402344 203.902344 489.84375 C 204.640625 490.410156 205.734375 490.4375 206.640625 490.238281 C 207.550781 490.042969 208.390625 489.625 209.269531 489.328125 C 211.179688 488.675781 213.632812 488.570312 215.601562 489.035156 C 215.816406 491.03125 215.65625 493.0625 215.136719 495 C 214.710938 496.578125 214.046875 498.121094 214 499.753906 C 214.152344 499.835938 214.3125 499.96875 214.402344 500.121094 C 214.496094 500.269531 214.527344 500.457031 214.457031 500.613281 C 214.347656 500.863281 214.050781 500.953125 213.828125 501.097656 C 213.484375 501.320312 213.265625 501.804688 213.28125 502.210938 C 213.117188 502.785156 213.078125 503.382812 212.984375 503.972656 C 212.894531 504.5625 212.746094 505.160156 212.402344 505.644531 C 212.117188 506.042969 212.132812 506.023438 211.738281 506.3125 L 211.773438 506.3125 C 212.566406 506.5 213.496094 506.855469 213.914062 507.554688 C 214.242188 508.105469 214.242188 508.804688 214.046875 509.414062 C 213.847656 510.023438 213.457031 510.675781 213.058594 511.179688 C 213.863281 511.648438 214.464844 512.464844 214.675781 513.371094 C 214.828125 514.03125 214.789062 514.726562 214.976562 515.378906 C 215.234375 516.265625 216.0625 516.832031 216.835938 517.410156 C 216.335938 518.230469 216.128906 519.191406 215.984375 520.140625 C 215.835938 521.085938 215.746094 522.050781 215.453125 522.964844 C 215.160156 523.878906 214.59375 524.773438 213.78125 525.285156 C 214.710938 525.90625 215.21875 527.101562 215.023438 528.203125 C 214.828125 529.300781 213.9375 530.25 212.847656 530.511719 C 212.785156 530.433594 212.46875 530.515625 212.417969 530.601562 C 212.371094 530.683594 212.375 530.785156 212.382812 530.886719 C 212.46875 531.867188 212.558594 532.855469 212.808594 533.808594 C 212.894531 534.152344 213.011719 534.496094 213.242188 534.761719 C 213.5 535.054688 213.875 535.21875 214.238281 535.371094 C 213.722656 535.960938 213.550781 536.847656 213.773438 537.601562 C 213.96875 538.257812 214.449219 538.800781 214.664062 539.453125 C 214.855469 540.035156 214.878906 540.761719 214.808594 541.371094 C 214.679688 541.734375 214.820312 542.148438 215.058594 542.449219 C 215.296875 542.75 215.621094 542.96875 215.925781 543.210938 C 216.371094 543.570312 216.777344 543.980469 217.128906 544.433594 C 217.34375 544.710938 217.542969 545.015625 217.605469 545.359375 C 217.675781 545.8125 217.503906 546.28125 217.261719 546.679688 Z M 217.261719 546.679688 " fill-opacity="1" fill-rule="nonzero"/><g clip-path="url(#1ecb604e00)"><path fill="#a6a6a6" d="M 98.847656 485.71875 L 218.71875 485.71875 L 218.71875 605.585938 L 98.847656 605.585938 Z M 98.847656 485.71875 " fill-opacity="1" fill-rule="nonzero"/></g><path fill="#ff0000" d="M 383.476562 546.679688 C 382.835938 547.730469 381.75 548.347656 380.675781 548.949219 C 381.128906 549.605469 381.113281 550.484375 380.910156 551.257812 C 380.710938 552.027344 380.339844 552.75 380.136719 553.523438 C 379.929688 554.292969 379.984375 555.3125 380.429688 555.972656 C 379.816406 556 379.296875 556.492188 379.046875 557.058594 C 378.796875 557.625 378.757812 558.253906 378.703125 558.871094 C 378.652344 559.488281 378.570312 560.125 378.246094 560.648438 L 378.261719 560.652344 C 379.144531 561.003906 380.066406 561.378906 380.691406 562.097656 C 380.875 562.308594 381.03125 562.546875 381.128906 562.804688 C 381.347656 563.402344 381.257812 564.078125 381.011719 564.660156 C 380.765625 565.246094 380.378906 565.761719 379.996094 566.265625 C 380.496094 566.761719 381.308594 567.316406 381.535156 567.984375 C 381.675781 568.40625 381.691406 568.863281 381.753906 569.308594 C 381.972656 570.878906 382.808594 572.355469 382.753906 573.941406 L 382.753906 573.945312 C 382.75 574.105469 382.632812 574.242188 382.492188 574.324219 C 382.355469 574.410156 382.199219 574.457031 382.054688 574.527344 C 381.5625 574.78125 381.300781 575.339844 381.199219 575.886719 C 381.09375 576.433594 381.109375 576.996094 380.996094 577.539062 C 380.761719 578.644531 379.914062 579.542969 379.175781 580.40625 C 379.578125 580.910156 379.984375 581.417969 380.210938 582.019531 C 380.441406 582.617188 380.46875 583.328125 380.125 583.871094 C 379.710938 584.539062 378.707031 584.855469 377.945312 585.054688 C 378.507812 585.597656 379.101562 586.199219 379.210938 586.96875 C 379.289062 587.507812 379.121094 588.054688 379.191406 588.589844 C 379.25 589.054688 379.488281 589.480469 379.789062 589.835938 C 380.089844 590.191406 380.457031 590.488281 380.816406 590.785156 C 380.160156 591.765625 380.226562 593.175781 380.535156 594.316406 C 380.84375 595.460938 381.390625 596.527344 381.691406 597.671875 C 382.082031 599.132812 382.054688 600.703125 381.625 602.148438 C 379.660156 602.617188 377.382812 602.621094 375.472656 601.964844 C 374.59375 601.664062 373.753906 601.25 372.84375 601.054688 C 371.9375 600.859375 370.84375 600.890625 370.105469 601.449219 C 369.765625 600.894531 369.246094 600.449219 368.644531 600.207031 C 367.945312 599.925781 367.171875 599.914062 366.425781 599.796875 C 365.679688 599.679688 364.851562 599.355469 364.433594 598.730469 C 364.253906 599.515625 363.886719 600.257812 363.363281 600.875 C 363.179688 601.09375 362.953125 601.308594 362.667969 601.351562 C 362.453125 601.378906 362.242188 601.308594 362.039062 601.226562 C 361.277344 600.929688 360.527344 600.472656 359.855469 600.003906 C 359.460938 599.980469 359.101562 600.242188 358.828125 600.527344 C 358.550781 600.808594 358.3125 601.144531 357.980469 601.355469 C 357.121094 601.898438 355.953125 601.476562 355.011719 601.84375 C 354.234375 602.144531 353.578125 602.875 353.15625 603.59375 C 352.882812 603.359375 352.519531 603.28125 352.167969 603.25 C 351.8125 603.222656 351.453125 603.234375 351.105469 603.15625 C 350.585938 603.039062 350.128906 602.730469 349.621094 602.570312 C 348.902344 602.335938 348.117188 602.40625 347.398438 602.171875 C 346.589844 601.90625 345.953125 601.277344 345.351562 600.671875 C 344.597656 601.234375 344.25 601.359375 343.375 601.707031 C 343.023438 601.847656 342.644531 601.96875 342.277344 601.878906 C 341.972656 601.804688 341.71875 601.589844 341.496094 601.371094 C 340.84375 600.722656 340.316406 599.886719 339.953125 599.039062 C 339 599.527344 337.8125 599.164062 336.789062 599.488281 C 336.074219 599.71875 335.433594 600.324219 335.1875 601.035156 C 334.667969 600.542969 333.84375 600.539062 333.164062 600.75 C 332.480469 600.964844 331.863281 601.351562 331.179688 601.5625 C 330.257812 601.847656 329.230469 601.789062 328.347656 601.394531 L 328.347656 601.203125 C 328.015625 602.476562 327.101562 603.585938 325.921875 604.160156 C 325.585938 604.320312 325.214844 604.441406 324.851562 604.386719 C 324.542969 604.335938 324.269531 604.167969 324.015625 603.984375 C 323.09375 603.328125 322.304688 602.476562 321.714844 601.5 C 320.664062 601.679688 319.59375 601.859375 318.617188 601.433594 C 318.117188 601.21875 317.683594 600.859375 317.171875 600.667969 C 316.371094 600.375 315.410156 600.566406 314.78125 601.144531 C 314.65625 600.53125 314.128906 600.019531 313.558594 599.765625 C 312.984375 599.511719 312.351562 599.441406 311.730469 599.375 C 311.109375 599.308594 310.476562 599.234375 309.90625 598.972656 C 309.804688 599.886719 309.441406 600.585938 308.824219 601.261719 C 308.578125 601.539062 308.277344 601.789062 307.910156 601.847656 C 307.675781 601.882812 307.433594 601.832031 307.207031 601.769531 C 306.371094 601.542969 305.578125 601.167969 304.878906 600.660156 C 303.742188 601.050781 303.0625 602.242188 301.890625 602.503906 C 301.335938 602.628906 300.746094 602.519531 300.191406 602.640625 C 299.757812 602.738281 299.371094 602.964844 298.945312 603.089844 C 298.191406 603.3125 297.339844 603.210938 296.664062 603.613281 C 296.308594 602.808594 295.445312 602.152344 294.601562 601.910156 C 294.105469 601.765625 293.578125 601.757812 293.070312 601.648438 C 292.105469 601.441406 291.046875 600.695312 290.460938 599.902344 C 290.027344 600.304688 289.949219 600.378906 289.433594 600.675781 C 288.921875 600.976562 288.316406 601.152344 287.734375 601.066406 C 287.203125 600.984375 286.714844 600.679688 286.375 600.265625 C 286.03125 599.851562 285.75 599.164062 285.683594 598.628906 C 285.234375 599.34375 284.414062 599.785156 283.574219 599.871094 C 283.003906 599.933594 282.417969 599.839844 281.851562 599.945312 C 281.0625 600.09375 280.222656 600.769531 279.890625 601.5 C 279.191406 600.984375 278.253906 600.917969 277.386719 601.039062 C 276 601.230469 274.707031 601.835938 273.355469 602.199219 C 271.796875 602.613281 269.617188 602.625 268.382812 602.152344 C 267.949219 600.703125 267.925781 599.136719 268.316406 597.675781 C 268.621094 596.535156 269.164062 595.464844 269.472656 594.320312 C 269.78125 593.179688 269.847656 591.769531 269.191406 590.785156 C 269.554688 590.492188 269.917969 590.195312 270.21875 589.839844 C 270.519531 589.480469 270.757812 589.058594 270.816406 588.59375 C 270.886719 588.054688 270.71875 587.507812 270.796875 586.972656 C 270.910156 586.199219 271.5 585.601562 272.0625 585.058594 C 271.300781 584.863281 270.300781 584.539062 269.882812 583.875 C 269.539062 583.332031 269.566406 582.621094 269.792969 582.019531 C 270.023438 581.421875 270.429688 580.90625 270.832031 580.40625 C 270.097656 579.546875 269.25 578.652344 269.011719 577.542969 C 268.898438 577 268.917969 576.4375 268.808594 575.890625 C 268.707031 575.34375 268.445312 574.78125 267.953125 574.53125 C 267.808594 574.457031 267.652344 574.410156 267.515625 574.328125 C 267.375 574.246094 267.257812 574.109375 267.253906 573.945312 C 267.199219 572.359375 268.03125 570.878906 268.253906 569.308594 C 268.316406 568.867188 268.328125 568.410156 268.472656 567.984375 C 268.699219 567.320312 269.507812 566.765625 270.007812 566.269531 C 269.625 565.761719 269.242188 565.25 268.996094 564.664062 C 268.75 564.078125 268.660156 563.402344 268.878906 562.808594 C 268.976562 562.546875 269.132812 562.308594 269.316406 562.097656 C 269.9375 561.378906 270.863281 561.003906 271.746094 560.65625 L 271.761719 560.652344 C 271.4375 560.121094 271.359375 559.488281 271.300781 558.875 C 271.25 558.257812 271.210938 557.625 270.960938 557.0625 C 270.714844 556.5 270.195312 556.003906 269.578125 555.976562 C 270.023438 555.3125 270.078125 554.296875 269.871094 553.523438 C 269.667969 552.753906 269.296875 552.03125 269.097656 551.257812 C 268.894531 550.488281 268.878906 549.605469 269.332031 548.949219 C 268.257812 548.351562 267.171875 547.730469 266.53125 546.679688 C 266.289062 546.289062 266.125 545.816406 266.207031 545.363281 C 266.269531 545.019531 266.46875 544.714844 266.683594 544.433594 C 267.035156 543.980469 267.441406 543.570312 267.890625 543.210938 C 268.191406 542.972656 268.515625 542.753906 268.753906 542.449219 C 268.992188 542.148438 269.136719 541.738281 269.007812 541.375 C 268.9375 540.769531 268.957031 540.039062 269.148438 539.457031 C 269.363281 538.804688 269.84375 538.261719 270.039062 537.601562 C 270.265625 536.851562 270.09375 535.960938 269.578125 535.371094 C 269.9375 535.21875 270.3125 535.058594 270.570312 534.761719 C 270.800781 534.496094 270.917969 534.152344 271.007812 533.8125 C 271.257812 532.855469 271.347656 531.867188 271.433594 530.886719 C 271.441406 530.789062 271.449219 530.683594 271.394531 530.601562 C 271.347656 530.519531 271.027344 530.4375 270.96875 530.511719 C 269.882812 530.25 268.988281 529.308594 268.792969 528.203125 C 268.59375 527.101562 269.105469 525.90625 270.035156 525.285156 C 269.222656 524.777344 268.652344 523.878906 268.359375 522.964844 C 268.070312 522.050781 267.976562 521.089844 267.832031 520.140625 C 267.6875 519.191406 267.472656 518.234375 266.980469 517.410156 C 267.753906 516.832031 268.582031 516.273438 268.839844 515.378906 C 269.027344 514.730469 268.984375 514.03125 269.140625 513.375 C 269.351562 512.460938 269.953125 511.652344 270.757812 511.179688 C 270.359375 510.675781 269.96875 510.023438 269.769531 509.414062 C 269.570312 508.804688 269.566406 508.105469 269.898438 507.558594 C 270.316406 506.859375 271.246094 506.5 272.042969 506.316406 L 272.074219 506.316406 C 271.679688 506.023438 271.695312 506.042969 271.414062 505.648438 C 271.066406 505.164062 270.917969 504.5625 270.828125 503.972656 C 270.738281 503.382812 270.699219 502.785156 270.535156 502.210938 C 270.546875 501.804688 270.328125 501.320312 269.988281 501.097656 C 269.761719 500.953125 269.46875 500.859375 269.359375 500.617188 C 269.289062 500.457031 269.320312 500.269531 269.410156 500.121094 C 269.5 499.976562 269.664062 499.839844 269.816406 499.757812 C 269.765625 498.125 269.097656 496.582031 268.679688 495 C 268.15625 493.0625 268 491.03125 268.210938 489.039062 C 269.445312 488.566406 271.804688 488.679688 273.367188 489.097656 C 274.71875 489.460938 276.007812 490.066406 277.398438 490.257812 C 278.257812 490.378906 279.199219 490.3125 279.902344 489.792969 C 280.234375 490.53125 281.070312 491.207031 281.863281 491.351562 C 282.429688 491.457031 283.011719 491.363281 283.585938 491.425781 C 284.425781 491.511719 285.246094 491.949219 285.691406 492.664062 C 285.765625 492.132812 286.042969 491.445312 286.382812 491.027344 C 286.726562 490.613281 287.214844 490.3125 287.746094 490.230469 C 288.332031 490.140625 288.929688 490.320312 289.445312 490.617188 C 289.957031 490.914062 290.039062 490.988281 290.472656 491.394531 C 291.0625 490.597656 292.113281 489.851562 293.082031 489.648438 C 293.585938 489.542969 294.113281 489.527344 294.613281 489.386719 C 295.460938 489.144531 296.320312 488.492188 296.675781 487.683594 C 297.351562 488.085938 298.203125 487.976562 298.953125 488.203125 C 299.378906 488.328125 299.769531 488.558594 300.203125 488.652344 C 300.757812 488.777344 301.34375 488.667969 301.898438 488.789062 C 303.074219 489.050781 303.75 490.246094 304.890625 490.636719 C 305.589844 490.128906 306.378906 489.746094 307.214844 489.523438 C 307.445312 489.460938 307.6875 489.414062 307.921875 489.449219 C 308.285156 489.503906 308.589844 489.757812 308.835938 490.03125 C 309.449219 490.710938 309.816406 491.410156 309.914062 492.320312 C 310.484375 492.058594 311.117188 491.988281 311.738281 491.921875 C 312.363281 491.855469 312.996094 491.785156 313.566406 491.53125 C 314.140625 491.273438 314.664062 490.765625 314.789062 490.152344 C 315.421875 490.730469 316.382812 490.921875 317.183594 490.625 C 317.695312 490.4375 318.125 490.074219 318.625 489.859375 C 319.605469 489.441406 320.671875 489.617188 321.722656 489.792969 C 322.3125 488.820312 323.101562 487.972656 324.027344 487.308594 C 324.28125 487.128906 324.550781 486.957031 324.859375 486.90625 C 325.230469 486.851562 325.597656 486.972656 325.929688 487.136719 C 327.113281 487.710938 328.023438 488.820312 328.359375 490.089844 L 328.355469 489.898438 C 329.242188 489.507812 330.265625 489.445312 331.191406 489.730469 C 331.875 489.941406 332.488281 490.332031 333.171875 490.542969 C 333.855469 490.753906 334.675781 490.75 335.195312 490.257812 C 335.441406 490.96875 336.082031 491.578125 336.800781 491.804688 C 337.824219 492.128906 339.007812 491.765625 339.960938 492.257812 C 340.328125 491.410156 340.855469 490.578125 341.507812 489.925781 C 341.730469 489.703125 341.980469 489.492188 342.285156 489.414062 C 342.652344 489.324219 343.035156 489.449219 343.382812 489.585938 C 344.253906 489.933594 344.605469 490.0625 345.359375 490.625 C 345.960938 490.015625 346.59375 489.390625 347.410156 489.125 C 348.125 488.886719 348.917969 488.957031 349.632812 488.726562 C 350.140625 488.5625 350.597656 488.253906 351.117188 488.140625 C 351.464844 488.0625 351.820312 488.078125 352.175781 488.042969 C 352.53125 488.015625 352.894531 487.929688 353.164062 487.703125 C 353.589844 488.417969 354.242188 489.152344 355.019531 489.453125 C 355.96875 489.816406 357.132812 489.394531 357.988281 489.9375 C 358.328125 490.148438 358.5625 490.484375 358.835938 490.769531 C 359.113281 491.054688 359.46875 491.3125 359.867188 491.292969 C 360.535156 490.824219 361.289062 490.367188 362.050781 490.066406 C 362.25 489.988281 362.464844 489.914062 362.679688 489.945312 C 362.964844 489.984375 363.1875 490.199219 363.375 490.421875 C 363.894531 491.039062 364.261719 491.78125 364.441406 492.566406 C 364.863281 491.9375 365.691406 491.617188 366.433594 491.5 C 367.179688 491.378906 367.953125 491.367188 368.65625 491.085938 C 369.257812 490.84375 369.777344 490.402344 370.113281 489.84375 C 370.855469 490.410156 371.945312 490.4375 372.855469 490.238281 C 373.761719 490.042969 374.605469 489.625 375.480469 489.328125 C 377.394531 488.675781 379.847656 488.570312 381.816406 489.035156 C 382.027344 491.03125 381.867188 493.0625 381.347656 495 C 380.925781 496.578125 380.257812 498.121094 380.210938 499.753906 C 380.363281 499.835938 380.523438 499.96875 380.617188 500.121094 C 380.710938 500.269531 380.738281 500.457031 380.667969 500.613281 C 380.558594 500.863281 380.265625 500.953125 380.039062 501.097656 C 379.699219 501.320312 379.480469 501.804688 379.492188 502.210938 C 379.332031 502.785156 379.289062 503.382812 379.199219 503.972656 C 379.105469 504.5625 378.960938 505.160156 378.613281 505.644531 C 378.332031 506.042969 378.347656 506.023438 377.953125 506.3125 L 377.984375 506.3125 C 378.78125 506.5 379.707031 506.855469 380.128906 507.554688 C 380.457031 508.105469 380.457031 508.804688 380.257812 509.414062 C 380.058594 510.023438 379.667969 510.675781 379.269531 511.179688 C 380.074219 511.648438 380.675781 512.464844 380.886719 513.371094 C 381.039062 514.03125 381 514.726562 381.1875 515.378906 C 381.445312 516.265625 382.273438 516.832031 383.046875 517.410156 C 382.550781 518.230469 382.339844 519.191406 382.195312 520.140625 C 382.050781 521.085938 381.957031 522.050781 381.664062 522.964844 C 381.375 523.878906 380.808594 524.773438 379.992188 525.285156 C 380.925781 525.90625 381.429688 527.101562 381.234375 528.203125 C 381.039062 529.300781 380.148438 530.25 379.058594 530.511719 C 379 530.433594 378.679688 530.515625 378.632812 530.601562 C 378.582031 530.683594 378.589844 530.785156 378.59375 530.886719 C 378.679688 531.867188 378.769531 532.855469 379.019531 533.808594 C 379.109375 534.152344 379.222656 534.496094 379.457031 534.761719 C 379.714844 535.054688 380.089844 535.21875 380.449219 535.371094 C 379.933594 535.960938 379.761719 536.847656 379.988281 537.601562 C 380.183594 538.257812 380.664062 538.800781 380.878906 539.453125 C 381.070312 540.035156 381.089844 540.761719 381.019531 541.371094 C 380.890625 541.734375 381.035156 542.148438 381.273438 542.449219 C 381.511719 542.75 381.835938 542.96875 382.136719 543.210938 C 382.582031 543.570312 382.992188 543.980469 383.34375 544.433594 C 383.558594 544.710938 383.757812 545.015625 383.820312 545.359375 C 383.886719 545.8125 383.71875 546.28125 383.476562 546.679688 Z M 383.476562 546.679688 " fill-opacity="1" fill-rule="nonzero"/><g clip-path="url(#beea921b37)"><path fill="#a6a6a6" d="M 265.0625 485.71875 L 384.929688 485.71875 L 384.929688 605.585938 L 265.0625 605.585938 Z M 265.0625 485.71875 " fill-opacity="1" fill-rule="nonzero"/></g><path fill="#ff0000" d="M 540.21875 546.679688 C 539.578125 547.730469 538.492188 548.347656 537.417969 548.949219 C 537.871094 549.605469 537.855469 550.484375 537.652344 551.257812 C 537.449219 552.027344 537.082031 552.75 536.878906 553.523438 C 536.671875 554.292969 536.726562 555.3125 537.171875 555.972656 C 536.554688 556 536.039062 556.492188 535.789062 557.058594 C 535.539062 557.625 535.5 558.253906 535.445312 558.871094 C 535.394531 559.488281 535.308594 560.125 534.988281 560.648438 L 535.003906 560.652344 C 535.886719 561.003906 536.808594 561.378906 537.433594 562.097656 C 537.617188 562.308594 537.773438 562.546875 537.867188 562.804688 C 538.085938 563.402344 537.996094 564.078125 537.753906 564.660156 C 537.507812 565.246094 537.121094 565.761719 536.738281 566.265625 C 537.234375 566.761719 538.050781 567.316406 538.277344 567.984375 C 538.417969 568.40625 538.433594 568.863281 538.496094 569.308594 C 538.714844 570.878906 539.546875 572.355469 539.496094 573.941406 L 539.496094 573.945312 C 539.492188 574.105469 539.375 574.242188 539.234375 574.324219 C 539.09375 574.410156 538.9375 574.457031 538.796875 574.527344 C 538.304688 574.78125 538.042969 575.339844 537.9375 575.886719 C 537.835938 576.433594 537.851562 576.996094 537.738281 577.539062 C 537.5 578.644531 536.652344 579.542969 535.917969 580.40625 C 536.320312 580.910156 536.726562 581.417969 536.953125 582.019531 C 537.183594 582.617188 537.210938 583.328125 536.867188 583.871094 C 536.449219 584.539062 535.445312 584.855469 534.6875 585.054688 C 535.25 585.597656 535.839844 586.199219 535.953125 586.96875 C 536.027344 587.507812 535.863281 588.054688 535.933594 588.589844 C 535.992188 589.054688 536.226562 589.480469 536.527344 589.835938 C 536.832031 590.191406 537.199219 590.488281 537.558594 590.785156 C 536.902344 591.765625 536.96875 593.175781 537.277344 594.316406 C 537.585938 595.460938 538.132812 596.527344 538.433594 597.671875 C 538.820312 599.132812 538.796875 600.703125 538.363281 602.148438 C 536.402344 602.617188 534.125 602.621094 532.214844 601.964844 C 531.335938 601.664062 530.492188 601.25 529.585938 601.054688 C 528.679688 600.859375 527.585938 600.890625 526.847656 601.449219 C 526.507812 600.894531 525.988281 600.449219 525.386719 600.207031 C 524.6875 599.925781 523.910156 599.914062 523.167969 599.796875 C 522.421875 599.679688 521.59375 599.355469 521.171875 598.730469 C 520.996094 599.515625 520.625 600.257812 520.105469 600.875 C 519.921875 601.09375 519.695312 601.308594 519.410156 601.351562 C 519.195312 601.378906 518.984375 601.308594 518.78125 601.226562 C 518.019531 600.929688 517.269531 600.472656 516.597656 600.003906 C 516.199219 599.980469 515.84375 600.242188 515.566406 600.527344 C 515.292969 600.808594 515.054688 601.144531 514.71875 601.355469 C 513.863281 601.898438 512.695312 601.476562 511.753906 601.84375 C 510.976562 602.144531 510.320312 602.875 509.898438 603.59375 C 509.625 603.359375 509.261719 603.28125 508.90625 603.25 C 508.554688 603.222656 508.195312 603.234375 507.847656 603.15625 C 507.328125 603.039062 506.871094 602.730469 506.363281 602.570312 C 505.644531 602.335938 504.855469 602.40625 504.140625 602.171875 C 503.328125 601.90625 502.695312 601.277344 502.089844 600.671875 C 501.339844 601.234375 500.992188 601.359375 500.117188 601.707031 C 499.765625 601.847656 499.382812 601.96875 499.015625 601.878906 C 498.710938 601.804688 498.460938 601.589844 498.238281 601.371094 C 497.585938 600.722656 497.058594 599.886719 496.695312 599.039062 C 495.742188 599.527344 494.554688 599.164062 493.53125 599.488281 C 492.816406 599.71875 492.175781 600.324219 491.929688 601.035156 C 491.410156 600.542969 490.585938 600.539062 489.902344 600.75 C 489.222656 600.964844 488.605469 601.351562 487.921875 601.5625 C 487 601.847656 485.972656 601.789062 485.085938 601.394531 L 485.089844 601.203125 C 484.753906 602.476562 483.84375 603.585938 482.664062 604.160156 C 482.328125 604.320312 481.957031 604.441406 481.59375 604.386719 C 481.285156 604.335938 481.007812 604.167969 480.757812 603.984375 C 479.832031 603.328125 479.046875 602.476562 478.457031 601.5 C 477.40625 601.679688 476.335938 601.859375 475.359375 601.433594 C 474.859375 601.21875 474.425781 600.859375 473.914062 600.667969 C 473.113281 600.375 472.152344 600.566406 471.523438 601.144531 C 471.394531 600.53125 470.871094 600.019531 470.300781 599.765625 C 469.726562 599.511719 469.09375 599.441406 468.472656 599.375 C 467.847656 599.308594 467.214844 599.234375 466.644531 598.972656 C 466.546875 599.886719 466.183594 600.585938 465.566406 601.261719 C 465.316406 601.539062 465.015625 601.789062 464.652344 601.847656 C 464.417969 601.882812 464.175781 601.832031 463.945312 601.769531 C 463.113281 601.542969 462.320312 601.167969 461.621094 600.660156 C 460.480469 601.050781 459.804688 602.242188 458.628906 602.503906 C 458.078125 602.628906 457.488281 602.519531 456.933594 602.640625 C 456.5 602.738281 456.113281 602.964844 455.683594 603.089844 C 454.933594 603.3125 454.078125 603.210938 453.40625 603.613281 C 453.050781 602.808594 452.1875 602.152344 451.34375 601.910156 C 450.847656 601.765625 450.320312 601.757812 449.8125 601.648438 C 448.847656 601.441406 447.789062 600.695312 447.203125 599.902344 C 446.769531 600.304688 446.6875 600.378906 446.175781 600.675781 C 445.664062 600.976562 445.058594 601.152344 444.476562 601.066406 C 443.945312 600.984375 443.457031 600.679688 443.117188 600.265625 C 442.769531 599.851562 442.492188 599.164062 442.421875 598.628906 C 441.976562 599.34375 441.15625 599.785156 440.316406 599.871094 C 439.742188 599.933594 439.160156 599.839844 438.59375 599.945312 C 437.804688 600.09375 436.964844 600.769531 436.632812 601.5 C 435.933594 600.984375 434.992188 600.917969 434.128906 601.039062 C 432.742188 601.230469 431.449219 601.835938 430.097656 602.199219 C 428.539062 602.613281 426.359375 602.625 425.125 602.152344 C 424.691406 600.703125 424.667969 599.136719 425.054688 597.675781 C 425.359375 596.535156 425.90625 595.464844 426.210938 594.320312 C 426.519531 593.179688 426.589844 591.769531 425.929688 590.785156 C 426.296875 590.492188 426.660156 590.195312 426.960938 589.839844 C 427.261719 589.480469 427.5 589.058594 427.558594 588.59375 C 427.625 588.054688 427.457031 587.507812 427.539062 586.972656 C 427.648438 586.199219 428.242188 585.601562 428.800781 585.058594 C 428.039062 584.863281 427.039062 584.539062 426.621094 583.875 C 426.28125 583.332031 426.308594 582.621094 426.535156 582.019531 C 426.765625 581.421875 427.171875 580.90625 427.574219 580.40625 C 426.835938 579.546875 425.988281 578.652344 425.753906 577.542969 C 425.636719 577 425.65625 576.4375 425.550781 575.890625 C 425.449219 575.34375 425.1875 574.78125 424.691406 574.53125 C 424.550781 574.457031 424.390625 574.410156 424.257812 574.328125 C 424.117188 574.246094 424 574.109375 423.996094 573.945312 C 423.9375 572.359375 424.773438 570.878906 424.996094 569.308594 C 425.058594 568.867188 425.070312 568.410156 425.214844 567.984375 C 425.441406 567.320312 426.25 566.765625 426.75 566.269531 C 426.367188 565.761719 425.980469 565.25 425.738281 564.664062 C 425.492188 564.078125 425.398438 563.402344 425.621094 562.808594 C 425.71875 562.546875 425.875 562.308594 426.054688 562.097656 C 426.679688 561.378906 427.601562 561.003906 428.488281 560.65625 L 428.5 560.652344 C 428.179688 560.121094 428.101562 559.488281 428.042969 558.875 C 427.992188 558.257812 427.953125 557.625 427.703125 557.0625 C 427.453125 556.5 426.9375 556.003906 426.316406 555.976562 C 426.765625 555.3125 426.816406 554.296875 426.613281 553.523438 C 426.40625 552.753906 426.039062 552.03125 425.835938 551.257812 C 425.636719 550.488281 425.617188 549.605469 426.074219 548.949219 C 425 548.351562 423.914062 547.730469 423.273438 546.679688 C 423.03125 546.289062 422.867188 545.816406 422.949219 545.363281 C 423.011719 545.019531 423.210938 544.714844 423.425781 544.433594 C 423.777344 543.980469 424.179688 543.570312 424.632812 543.210938 C 424.933594 542.972656 425.257812 542.753906 425.496094 542.449219 C 425.734375 542.148438 425.878906 541.738281 425.75 541.375 C 425.679688 540.769531 425.699219 540.039062 425.890625 539.457031 C 426.105469 538.804688 426.585938 538.261719 426.78125 537.601562 C 427.007812 536.851562 426.835938 535.960938 426.316406 535.371094 C 426.679688 535.21875 427.054688 535.058594 427.3125 534.761719 C 427.542969 534.496094 427.660156 534.152344 427.75 533.8125 C 428 532.855469 428.085938 531.867188 428.171875 530.886719 C 428.183594 530.789062 428.191406 530.683594 428.136719 530.601562 C 428.085938 530.519531 427.769531 530.4375 427.710938 530.511719 C 426.621094 530.25 425.730469 529.308594 425.535156 528.203125 C 425.335938 527.101562 425.84375 525.90625 426.773438 525.285156 C 425.964844 524.777344 425.394531 523.878906 425.101562 522.964844 C 424.8125 522.050781 424.71875 521.089844 424.574219 520.140625 C 424.425781 519.191406 424.214844 518.234375 423.722656 517.410156 C 424.492188 516.832031 425.324219 516.273438 425.578125 515.378906 C 425.769531 514.730469 425.726562 514.03125 425.878906 513.375 C 426.09375 512.460938 426.691406 511.652344 427.496094 511.179688 C 427.101562 510.675781 426.707031 510.023438 426.511719 509.414062 C 426.3125 508.804688 426.308594 508.105469 426.640625 507.558594 C 427.058594 506.859375 427.988281 506.5 428.785156 506.316406 L 428.816406 506.316406 C 428.421875 506.023438 428.4375 506.042969 428.152344 505.648438 C 427.808594 505.164062 427.660156 504.5625 427.570312 503.972656 C 427.480469 503.382812 427.441406 502.785156 427.273438 502.210938 C 427.289062 501.804688 427.070312 501.320312 426.730469 501.097656 C 426.503906 500.953125 426.207031 500.859375 426.097656 500.617188 C 426.03125 500.457031 426.0625 500.269531 426.152344 500.121094 C 426.242188 499.976562 426.402344 499.839844 426.554688 499.757812 C 426.507812 498.125 425.839844 496.582031 425.417969 495 C 424.898438 493.0625 424.742188 491.03125 424.953125 489.039062 C 426.1875 488.566406 428.546875 488.679688 430.105469 489.097656 C 431.457031 489.460938 432.75 490.066406 434.140625 490.257812 C 435 490.378906 435.941406 490.3125 436.644531 489.792969 C 436.976562 490.53125 437.8125 491.207031 438.605469 491.351562 C 439.171875 491.457031 439.753906 491.363281 440.328125 491.425781 C 441.167969 491.511719 441.984375 491.949219 442.433594 492.664062 C 442.503906 492.132812 442.785156 491.445312 443.125 491.027344 C 443.46875 490.613281 443.957031 490.3125 444.488281 490.230469 C 445.074219 490.140625 445.671875 490.320312 446.1875 490.617188 C 446.699219 490.914062 446.777344 490.988281 447.210938 491.394531 C 447.800781 490.597656 448.855469 489.851562 449.824219 489.648438 C 450.328125 489.542969 450.855469 489.527344 451.351562 489.386719 C 452.199219 489.144531 453.0625 488.492188 453.417969 487.683594 C 454.09375 488.085938 454.941406 487.976562 455.695312 488.203125 C 456.121094 488.328125 456.511719 488.558594 456.945312 488.652344 C 457.5 488.777344 458.085938 488.667969 458.640625 488.789062 C 459.816406 489.050781 460.492188 490.246094 461.632812 490.636719 C 462.332031 490.128906 463.121094 489.746094 463.957031 489.523438 C 464.1875 489.460938 464.425781 489.414062 464.660156 489.449219 C 465.027344 489.503906 465.332031 489.757812 465.578125 490.03125 C 466.1875 490.710938 466.558594 491.410156 466.65625 492.320312 C 467.226562 492.058594 467.859375 491.988281 468.480469 491.921875 C 469.105469 491.855469 469.738281 491.785156 470.308594 491.53125 C 470.882812 491.273438 471.40625 490.765625 471.53125 490.152344 C 472.160156 490.730469 473.121094 490.921875 473.921875 490.625 C 474.4375 490.4375 474.867188 490.074219 475.367188 489.859375 C 476.34375 489.441406 477.414062 489.617188 478.464844 489.792969 C 479.054688 488.820312 479.84375 487.972656 480.765625 487.308594 C 481.023438 487.128906 481.292969 486.957031 481.601562 486.90625 C 481.96875 486.851562 482.339844 486.972656 482.671875 487.136719 C 483.855469 487.710938 484.765625 488.820312 485.101562 490.089844 L 485.097656 489.898438 C 485.980469 489.507812 487.007812 489.445312 487.933594 489.730469 C 488.613281 489.941406 489.230469 490.332031 489.914062 490.542969 C 490.597656 490.753906 491.417969 490.75 491.9375 490.257812 C 492.183594 490.96875 492.820312 491.578125 493.539062 491.804688 C 494.5625 492.128906 495.75 491.765625 496.703125 492.257812 C 497.070312 491.410156 497.59375 490.578125 498.25 489.925781 C 498.46875 489.703125 498.722656 489.492188 499.027344 489.414062 C 499.394531 489.324219 499.773438 489.449219 500.125 489.585938 C 500.996094 489.933594 501.347656 490.0625 502.101562 490.625 C 502.703125 490.015625 503.335938 489.390625 504.152344 489.125 C 504.867188 488.886719 505.660156 488.957031 506.375 488.726562 C 506.878906 488.5625 507.335938 488.253906 507.859375 488.140625 C 508.207031 488.0625 508.5625 488.078125 508.917969 488.042969 C 509.273438 488.015625 509.636719 487.929688 509.90625 487.703125 C 510.332031 488.417969 510.984375 489.152344 511.761719 489.453125 C 512.710938 489.816406 513.875 489.394531 514.730469 489.9375 C 515.066406 490.148438 515.304688 490.484375 515.578125 490.769531 C 515.851562 491.054688 516.210938 491.3125 516.609375 491.292969 C 517.277344 490.824219 518.03125 490.367188 518.792969 490.066406 C 518.992188 489.988281 519.203125 489.914062 519.421875 489.945312 C 519.707031 489.984375 519.929688 490.199219 520.117188 490.421875 C 520.636719 491.039062 521.003906 491.78125 521.183594 492.566406 C 521.601562 491.9375 522.433594 491.617188 523.175781 491.5 C 523.921875 491.378906 524.691406 491.367188 525.394531 491.085938 C 526 490.84375 526.519531 490.402344 526.855469 489.84375 C 527.59375 490.410156 528.6875 490.4375 529.597656 490.238281 C 530.503906 490.042969 531.34375 489.625 532.222656 489.328125 C 534.132812 488.675781 536.589844 488.570312 538.554688 489.035156 C 538.769531 491.03125 538.609375 493.0625 538.089844 495 C 537.664062 496.578125 537 498.121094 536.953125 499.753906 C 537.105469 499.835938 537.265625 499.96875 537.359375 500.121094 C 537.449219 500.269531 537.480469 500.457031 537.410156 500.613281 C 537.300781 500.863281 537.007812 500.953125 536.78125 501.097656 C 536.441406 501.320312 536.21875 501.804688 536.234375 502.210938 C 536.070312 502.785156 536.03125 503.382812 535.9375 503.972656 C 535.847656 504.5625 535.703125 505.160156 535.355469 505.644531 C 535.070312 506.042969 535.085938 506.023438 534.695312 506.3125 L 534.726562 506.3125 C 535.519531 506.5 536.449219 506.855469 536.871094 507.554688 C 537.195312 508.105469 537.195312 508.804688 537 509.414062 C 536.800781 510.023438 536.410156 510.675781 536.011719 511.179688 C 536.816406 511.648438 537.417969 512.464844 537.628906 513.371094 C 537.78125 514.03125 537.742188 514.726562 537.929688 515.378906 C 538.1875 516.265625 539.015625 516.832031 539.789062 517.410156 C 539.289062 518.230469 539.082031 519.191406 538.9375 520.140625 C 538.792969 521.085938 538.699219 522.050781 538.40625 522.964844 C 538.117188 523.878906 537.546875 524.773438 536.734375 525.285156 C 537.664062 525.90625 538.171875 527.101562 537.976562 528.203125 C 537.78125 529.300781 536.890625 530.25 535.800781 530.511719 C 535.742188 530.433594 535.421875 530.515625 535.371094 530.601562 C 535.324219 530.683594 535.328125 530.785156 535.335938 530.886719 C 535.421875 531.867188 535.511719 532.855469 535.761719 533.808594 C 535.851562 534.152344 535.964844 534.496094 536.199219 534.761719 C 536.457031 535.054688 536.832031 535.21875 537.191406 535.371094 C 536.675781 535.960938 536.503906 536.847656 536.726562 537.601562 C 536.921875 538.257812 537.402344 538.800781 537.617188 539.453125 C 537.8125 540.035156 537.832031 540.761719 537.761719 541.371094 C 537.632812 541.734375 537.773438 542.148438 538.011719 542.449219 C 538.25 542.75 538.578125 542.96875 538.878906 543.210938 C 539.324219 543.570312 539.730469 543.980469 540.082031 544.433594 C 540.296875 544.710938 540.496094 545.015625 540.5625 545.359375 C 540.628906 545.8125 540.460938 546.28125 540.21875 546.679688 Z M 540.21875 546.679688 " fill-opacity="1" fill-rule="nonzero"/><g clip-path="url(#89baef01db)"><path fill="#a6a6a6" d="M 421.804688 485.71875 L 541.671875 485.71875 L 541.671875 605.585938 L 421.804688 605.585938 Z M 421.804688 485.71875 " fill-opacity="1" fill-rule="nonzero"/></g></g></g></svg>